<svg xmlns="http://www.w3.org/2000/svg" xmlns:xlink="http://www.w3.org/1999/xlink" width="80" height="80" viewBox="0 0 125 125">
  <defs>
    <filter id="Path_2332" x="0" y="0" width="100" height="100" filterUnits="userSpaceOnUse">
      <feOffset dy="3" input="SourceAlpha"/>
      <feGaussianBlur stdDeviation="10" result="blur"/>
      <feFlood flood-opacity="0.388"/>
      <feComposite operator="in" in2="blur"/>
      <feComposite in="SourceGraphic"/>
    </filter>
  </defs>
  <g id="Group_2129" data-name="Group 2129" transform="translate(-1196 -965.5)">
    <g transform="matrix(1, 0, 0, 1, 1196, 965.5)" filter="url(#Path_2332)">
      <g id="Path_2332-2" data-name="Path 2332" transform="translate(30 27)" fill="#72c4f1">
        <path d="M 32.5 63.5 C 28.31436920166016 63.5 24.25473022460938 62.68056869506836 20.43386077880859 61.06447982788086 C 16.74258041381836 59.50320053100586 13.42716026306152 57.26778030395508 10.57968997955322 54.42031097412109 C 7.73222017288208 51.57284164428711 5.496799945831299 48.25741958618164 3.935519933700562 44.56613922119141 C 2.319430112838745 40.74526977539062 1.5 36.68563079833984 1.5 32.5 C 1.5 28.31436920166016 2.319430112838745 24.25473022460938 3.935519933700562 20.43386077880859 C 5.496799945831299 16.74258041381836 7.73222017288208 13.42716026306152 10.57968997955322 10.57968997955322 C 13.42716026306152 7.73222017288208 16.74258041381836 5.496799945831299 20.43386077880859 3.935519933700562 C 24.25473022460938 2.319430112838745 28.31436920166016 1.5 32.5 1.5 C 36.68563079833984 1.5 40.74526977539062 2.319430112838745 44.56613922119141 3.935519933700562 C 48.25741958618164 5.496799945831299 51.57284164428711 7.73222017288208 54.42031097412109 10.57968997955322 C 57.26778030395508 13.42716026306152 59.50320053100586 16.74258041381836 61.06447982788086 20.43386077880859 C 62.68056869506836 24.25473022460938 63.5 28.31436920166016 63.5 32.5 C 63.5 36.2052001953125 62.85337066650391 39.82561874389648 61.57807159423828 43.26071166992188 C 60.34344100952148 46.58626174926758 58.55244827270508 49.65642929077148 56.25484848022461 52.38592147827148 C 53.96987915039062 55.10041046142578 51.25685882568359 57.39199829101562 48.1911506652832 59.19704818725586 C 45.05720901489258 61.04227066040039 41.64596939086914 62.32329177856445 38.05221176147461 63.00450134277344 C 36.37253952026367 63.32410049438477 34.40108871459961 63.5 32.5 63.5 Z" stroke="none"/>
        <path d="M 32.5 3 C 28.51620101928711 3 24.65316772460938 3.779556274414062 21.0181884765625 5.317020416259766 C 17.50571060180664 6.802677154541016 14.35054397583008 8.930156707763672 11.64034271240234 11.64034271240234 C 8.930156707763672 14.35054397583008 6.802677154541016 17.50571060180664 5.317020416259766 21.0181884765625 C 3.779556274414062 24.65316772460938 3 28.51620101928711 3 32.5 C 3 36.48380279541016 3.779556274414062 40.34683227539062 5.317020416259766 43.9818115234375 C 6.802677154541016 47.49428939819336 8.930156707763672 50.64945602416992 11.64034271240234 53.35965728759766 C 14.35054397583008 56.06984329223633 17.50571060180664 58.19732284545898 21.0181884765625 59.68297576904297 C 24.65316772460938 61.22044372558594 28.51620101928711 62 32.5 62 C 34.30984497070312 62 36.18172454833984 61.83348846435547 37.77284240722656 61.53074645996094 C 41.19633483886719 60.88180160522461 44.44549942016602 59.6617431640625 47.43009948730469 57.90445709228516 C 50.34903335571289 56.18583297729492 52.93201065063477 54.00411987304688 55.1072883605957 51.41994476318359 C 57.29347991943359 48.82281112670898 58.99744415283203 45.90200042724609 60.17185592651367 42.73864364624023 C 61.38492202758789 39.47117614746094 62 36.02639770507812 62 32.5 C 62 28.51620101928711 61.22044372558594 24.65316772460938 59.68297576904297 21.0181884765625 C 58.19732284545898 17.50571060180664 56.06984329223633 14.35054397583008 53.35965728759766 11.64034271240234 C 50.64945602416992 8.930156707763672 47.49428939819336 6.802677154541016 43.9818115234375 5.317020416259766 C 40.34683227539062 3.779556274414062 36.48380279541016 3 32.5 3 M 32.5 0 C 50.44925689697266 0 65 14.55074310302734 65 32.5 C 65 48.36714172363281 53.62923431396484 61.57849884033203 38.33156585693359 64.47825622558594 C 36.61849975585938 64.80419921875 34.58211135864258 65 32.5 65 C 14.55074310302734 65 0 50.44925689697266 0 32.5 C 0 14.55074310302734 14.55074310302734 0 32.5 0 Z" stroke="none" fill="#72c4f1"/>
      </g>
    </g>
    <g id="Compose" transform="translate(1246 1012.5)">
      <rect id="Rectangle_324" data-name="Rectangle 324" width="25" height="25" fill="none"/>
      <path id="Path_110" data-name="Path 110" d="M12.74,4.808,3.846,13.942,0,25l11.058-3.606L19.952,12.5Zm11.3-.721L20.913.962a2.915,2.915,0,0,0-4.327,0L13.942,3.606l7.212,7.452,2.885-2.885A3.047,3.047,0,0,0,25,6.01,2.968,2.968,0,0,0,24.038,4.087Z" fill="#fff" stroke="#000" stroke-width="0.5"/>
    </g>
  </g>
</svg>
