<svg xmlns="http://www.w3.org/2000/svg" width="31.977" height="35.178" viewBox="0 0 31.977 35.178">
  <g id="bubble" transform="translate(1 1)">
    <path id="Path_2143" data-name="Path 2143" d="M548.165,467.357a14.982,14.982,0,1,0-7.856,13.186c2.365,1.361,6.818,3.994,6.818,3.994l-1.769-8.452A14.917,14.917,0,0,0,548.165,467.357Zm-21.46,1.7a1.727,1.727,0,1,1,1.726-1.726A1.726,1.726,0,0,1,526.705,469.058Zm5.92,0a1.727,1.727,0,1,1,1.726-1.726A1.726,1.726,0,0,1,532.625,469.058Zm5.92,0a1.727,1.727,0,1,1,1.726-1.726A1.727,1.727,0,0,1,538.545,469.058Z" transform="translate(-518.188 -452.368)" fill="#fff" stroke="#72c4f1" stroke-width="2"/>
  </g>
</svg>
