<svg xmlns="http://www.w3.org/2000/svg" width="65" height="65" viewBox="0 0 65 65">
  <g id="Group_1976" data-name="Group 1976" transform="translate(-546 -20)">
    <g id="Group_1969" data-name="Group 1969" transform="translate(82 -22)">
      <g id="Group_1742" data-name="Group 1742" transform="translate(12 5)">
        <g id="Group_1741" data-name="Group 1741" transform="translate(0 4)">
          <g id="Group_1740" data-name="Group 1740" transform="translate(452 33)">
            <g id="Group_1739" data-name="Group 1739">
              <g id="Ellipse_63" data-name="Ellipse 63" fill="#19173D" stroke="#19173D" stroke-width="1">
                <circle cx="32.5" cy="32.5" r="32.5" stroke="none"/>
                <circle cx="32.5" cy="32.5" r="32" fill="none"/>
              </g>
            </g>
          </g>
        </g>
      </g>
    </g>
    <g id="Group_1968" data-name="Group 1968" transform="translate(-14719 -674)">
      <g id="Group_1967" data-name="Group 1967" transform="translate(15284 709)">
        <g id="Group_1966" data-name="Group 1966" transform="translate(-1 0)">
          <path id="Subtraction_6" data-name="Subtraction 6" d="M28,30H4.62v-.014A5,5,0,0,1,0,25V13.072a5.006,5.006,0,0,1,5-5H8.5V26.5H9.836V3a3,3,0,0,1,3-3H28a3,3,0,0,1,3,3V27A3,3,0,0,1,28,30ZM17.735,24.062v3.5h8.048v-3.5ZM2.831,21.32v2.741H5.514V21.32ZM24.89,18.579V21.32h2.682V18.579Zm-4.919,0V21.32h2.683V18.579Zm-4.918,0V21.32h2.683V18.579ZM2.831,16.447v2.741H5.514V16.447ZM24.89,14.315v2.741h2.682V14.315Zm-4.919,0v2.741h2.683V14.315Zm-4.918,0v2.741h2.683V14.315ZM2.831,11.574v2.741H5.514V11.574ZM24.89,9.442v2.741h2.682V9.442Zm-4.919,0v2.741h2.683V9.442Zm-4.918,0v2.741h2.683V9.442ZM24.89,4.568V7.31h2.682V4.568Zm-4.919,0V7.31h2.683V4.568Zm-4.918,0V7.31h2.683V4.568Z" transform="translate(-2 2)" fill="#fff"/>
        </g>
      </g>
    </g>
  </g>
</svg>
