<svg xmlns="http://www.w3.org/2000/svg" width="31.212" height="29.359" viewBox="0 0 31.212 29.359">
  <g id="Thumbs_down" data-name="Thumbs down" transform="translate(1.026 1.021)">
    <path id="Path_2200" data-name="Path 2200" d="M654.389,467.768a17.739,17.739,0,0,1,2.7,10.22s-.205.093-.547.205a24.775,24.775,0,0,0-2.937,1.366s-.752,2.938-2.049,3.552-4.031,3.962-4.3,4.235a7.42,7.42,0,0,0-2.784,1.759c-1.144,1.195-.973,2.066-.973,2.066s.048.664-.808.679a.771.771,0,0,1-.285-.063,3.328,3.328,0,0,1-.82-4.508,12.323,12.323,0,0,1,2.323-2.6s1.3-2.254-.2-3.074c0,0-3.143-.683-3.416-.752a10.684,10.684,0,0,0-1.913.41c-.341.069-2.049.2-2.39-.136a5.188,5.188,0,0,1-.956-2.664,1.277,1.277,0,0,1,1.093-1.434,2.169,2.169,0,0,1-.751-1.5c0-.888-.137-2.05,1.229-2.39a1.361,1.361,0,0,1-.41-.889c-.069-.615.136-2.664,1.639-2.8,0,0,.205-2.117,1.161-2.87s7.036-1.092,9.9-.272a7.969,7.969,0,0,0,2.46.477,5.288,5.288,0,0,1,1.872.074A1.886,1.886,0,0,1,654.389,467.768Z" transform="translate(-635.011 -464.513)" fill="#72c4f1" stroke="#72c4f1" stroke-width="2"/>
    <path id="Path_2201" data-name="Path 2201" d="M677.485,477.676c-1.391.217-2.711.42-2.982.451a1.348,1.348,0,0,1-.956-.247c.069.012.14.146.211.146h.019a1.857,1.857,0,0,0,.666-.277,1.831,1.831,0,0,0,.678-1.426c.012-.306.018-.7.013-1.049-.011-.224-.02-.438-.026-.611-.01-.116-.021-.234-.036-.331a22.266,22.266,0,0,0-2.792-8.227,2.306,2.306,0,0,0-2.356-1.325,2.074,2.074,0,0,1,.958-.929s3.347-.889,4.68-.376l-.036,0c2.659.979,3.514,2.759,4.331,5.372a22.434,22.434,0,0,1,.834,3.948c.068.566.107,1.081.12,1.512C680.874,476.482,678.749,477.352,677.485,477.676Z" transform="translate(-651.626 -463.315)" fill="#72c4f1" stroke="#72c4f1" stroke-width="2"/>
  </g>
</svg>
