<svg xmlns="http://www.w3.org/2000/svg" viewBox="0 0 1664.14 1803.56"><defs><style>.cls-1{fill:#72c4f1;}</style></defs><title>PNG_Asset 3svg</title><g id="Layer_2" data-name="Layer 2"><g id="Layer_1-2" data-name="Layer 1"><path class="cls-1" d="M866,0a316.72,316.72,0,0,1-5.21,38.58c-3.26,16-6.91,31.91-10.38,47.86-3.11,14.33-6.24,28.65-9.28,43Q833,167.58,825,205.73q-11,52.32-22.15,104.63c-6,28.35-12.16,56.68-18.19,85-5.06,23.79-10,47.6-15.07,71.39-3.47,16.29-7,32.57-10.51,48.86-.56,2.6-.85,5.26-1.4,7.87-.68,3.25-1.31,6.54-2.3,9.7a7,7,0,0,1-9.88,3.83,17.94,17.94,0,0,1-4-2.85c-2.91-2.74-5.67-5.65-8.51-8.46q-14.22-14.06-28.47-28.09c-4.74-4.67-9.41-9.43-14.73-13.49a70.55,70.55,0,0,1-6.56-6.16c-11.84-11.71-23.64-23.48-35.53-35.16a55.43,55.43,0,0,0-7.58-6.46c-4.23-2.89-8.92-2.6-13,.51a28.52,28.52,0,0,0-4.3,4.14c-7.64,8.8-15.09,17.76-23,26.37-6.73,7.36-13,15.19-19.51,22.74-6.1,7-12.33,14-18.47,21q-10.17,11.67-20.27,23.4c-.66.76-1.21,1.6-1.88,2.34-6.87,7.71-13.8,15.36-20.61,23.12s-13.47,15.64-20.2,23.46c-.65.76-1.24,1.58-1.92,2.3-8.91,9.46-17.15,19.51-25.58,29.38-6.7,7.85-13.78,15.38-20.59,23.13-6.59,7.51-13,15.13-19.58,22.69-1.52,1.77-3.06,3.52-4.59,5.27-3.28,3.77-6.55,7.55-9.84,11.3-1.76,2-3.58,4-5.34,6-2.64,3-5.24,6-7.87,9-2,2.26-4,4.5-5.93,6.76-2.84,3.26-5.66,6.54-8.51,9.81-1.75,2-3.54,4-5.29,6q-4.27,4.88-8.52,9.79c-.87,1-1.64,2.11-2.56,3.07-8.92,9.45-17.13,19.52-25.55,29.41-6.26,7.35-12.85,14.42-19.18,21.71-6.56,7.53-12.94,15.22-19.47,22.77-6.33,7.3-12.77,14.5-19.13,21.76Q283.18,830.75,277,838q-11.07,12.88-22.1,25.79a35.54,35.54,0,0,0-2.51,3.11,12.06,12.06,0,0,0-.74,13.22,41.28,41.28,0,0,0,7.19,9.55C268.31,899.5,277,910,286,920.34c7,8.07,14.19,15.9,21.28,23.85,2.44,2.74,4.81,5.53,7.19,8.31.66.75,1.21,1.59,1.88,2.34,6.64,7.46,13.34,14.87,19.94,22.37,6.82,7.75,13.54,15.58,20.3,23.38,1.53,1.76,3,3.53,4.57,5.29,3.5,4,7,8,10.5,12,1.54,1.75,3.15,3.44,4.69,5.19,3.74,4.24,7.46,8.51,11.2,12.75,1.55,1.75,3.15,3.45,4.69,5.2,2.85,3.25,5.68,6.53,8.53,9.79,2,2.25,4,4.47,6,6.72,2.63,3,5.23,6,7.86,9.05,2.2,2.5,4.44,5,6.64,7.47,2.41,2.75,4.79,5.54,7.19,8.3,2,2.26,3.95,4.5,5.92,6.76,2.85,3.27,5.67,6.55,8.52,9.8,2,2.26,4,4.46,6,6.72,2.63,3,5.24,6,7.84,9.06.65.76,1.23,1.58,1.89,2.33,6.88,7.7,13.82,15.34,20.64,23.09,6.59,7.5,13.05,15.12,19.59,22.67,2,2.27,4,4.48,6,6.73,2.63,3,5.24,6,7.86,9,1.75,2,3.51,4,5.25,6q4.59,5.28,9.17,10.56c.87,1,1.67,2.08,2.58,3,8.65,9.24,16.74,19,24.83,28.71a52.09,52.09,0,0,0,6.35,6.34c3.38,2.87,7.26,3.06,11.26,1.37a15.28,15.28,0,0,0,6.3-4.81c5.69-7.44,12.63-13.72,19-20.5a39.5,39.5,0,0,0,2.75-2.9c6.5-8.51,14.65-15.51,21.54-23.62,8.22-9.67,17.52-18.29,25.79-27.85,7.87-9.09,16.61-17.33,24.41-26.41,7.61-8.87,16.11-16.88,23.72-25.69,7.19-8.34,15.16-16,22.3-24.28,6.95-8.11,14.71-15.45,21.6-23.56,7.34-8.66,15.6-16.45,22.94-25,6.07-7.1,12.82-13.57,18.81-20.69,7.3-8.7,15.63-16.43,22.95-25,7.79-9.15,16.23-17.65,24.54-26.29a26.44,26.44,0,0,0,2-2.19c6.68-8.79,14.78-16.26,22.39-24.19a49.7,49.7,0,0,0,4.11-4.37c5.83-7.77,13-14.33,19.64-21.29,4.39-4.56,8.9-9,12.75-14.07a88.36,88.36,0,0,1,6.8-7.31c7.58-8,15.56-15.51,22.47-24.13,3.73-4.66,8.32-8.63,12.43-13,3.18-3.4,6.2-6.95,9.32-10.42,2.22-2.48,4.44-5,6.72-7.39,6.41-6.77,13.24-13.14,18.94-20.59a37.72,37.72,0,0,1,6.52-6.15,13.73,13.73,0,0,1,8.34-3,11.13,11.13,0,0,1,7.52,2.21,57.56,57.56,0,0,1,5.21,4.66c6.34,6.38,12.63,12.81,18.94,19.23a23.41,23.41,0,0,1,2,2.18c6.9,9,15.3,16.7,23.15,24.86,5.55,5.75,11.38,11.23,16.22,17.65a60.13,60.13,0,0,0,5.49,5.81Q1072,889,1084.33,901.45a171.23,171.23,0,0,1,13.52,14.71,108.92,108.92,0,0,0,8.25,8.69c3,3.1,6.13,6.13,9.12,9.26a34.16,34.16,0,0,1,3.82,4.6c3.5,5.23,3.68,10.62.23,15.93a39.93,39.93,0,0,1-4.41,5.41c-9.08,9.74-17.52,20.08-27.14,29.33-6.24,8.29-14.15,15.06-20.8,22.93-7.55,8.93-16.09,16.9-23.64,25.76-6.72,7.89-13.89,15.29-21,22.72a40.59,40.59,0,0,0-3.42,3.65c-5.83,7.75-12.9,14.37-19.6,21.33a57.38,57.38,0,0,0-4.78,5.1c-5,6.7-11,12.46-16.84,18.44-4.64,4.78-9.21,9.6-13.45,14.77-4,4.88-8.73,9.16-13,13.79-3.41,3.65-6.66,7.45-10,11.15q-3.69,4.08-7.46,8.08c-6.87,7.25-14.11,14.14-20.36,22-3.51,4.41-7.86,8.16-11.72,12.3-3.63,3.9-7.1,7.94-10.67,11.89-2.24,2.47-4.49,4.93-6.79,7.34-7.12,7.47-14.56,14.63-21.05,22.71-3.74,4.66-8.26,8.69-12.45,13a157.12,157.12,0,0,0-12.06,13.33,101.26,101.26,0,0,1-7.46,8.06c-6,6.25-12.14,12.34-17.59,19.12-3.75,4.65-8.25,8.7-12.42,13-4.41,4.54-8.76,9.11-12.76,14.05-3.56,4.38-7.73,8.27-11.66,12.35-4.16,4.32-8.32,8.61-12.08,13.32-3.1,3.89-6.78,7.33-10.24,10.94-4.84,5-9.71,10-14.15,15.49-4,4.89-8.67,9.22-13.06,13.77s-8.93,9-12.72,14.09a65.18,65.18,0,0,1-5.41,5.89c-6,6.25-12.28,12.21-17.52,19.16a77.64,77.64,0,0,1-6.16,6.55c-5.31,5.53-10.81,10.86-15.45,17a85.29,85.29,0,0,1-6.81,7.31c-4.39,4.56-8.58,9.29-12.72,14.08-8.06,9.33-16.59,18.25-26.79,25.37-13.62,9.52-28.59,16-45,18.11-25.1,3.17-48.37-2.18-69-17.32-8.38-6.13-16.06-13-22.36-21.28a25,25,0,0,0-1.92-2.31c-8.48-8.93-17.14-17.69-25.07-27.17-4.69-5.6-10.19-10.51-14.6-16.41-1.79-2.39-4.12-4.36-6.12-6.59-2.67-3-5.27-6-7.9-9-1.53-1.75-3-3.54-4.56-5.29q-5.25-6-10.51-12c-.44-.5-.84-1-1.29-1.53-7.34-8.17-14.77-16.28-22-24.52-6.82-7.74-13.49-15.63-20.22-23.45-.43-.51-.82-1.06-1.26-1.55-6.88-7.7-13.82-15.34-20.63-23.1s-13.48-15.63-20.23-23.44c-1.74-2-3.57-4-5.33-6-2.65-3-5.26-6-7.89-9l-5.92-6.77c-2.84-3.26-5.67-6.54-8.51-9.8-1.76-2-3.54-4-5.3-6q-4.27-4.89-8.52-9.79c-.44-.5-.81-1.07-1.25-1.56-6.63-7.48-13.31-14.91-19.89-22.42-7-8-14-16.09-20.94-24.14l-4.6-5.27c-3.28-3.77-6.55-7.55-9.84-11.3-1.76-2-3.58-4-5.34-6-2.64-3-5.25-6-7.88-9-2-2.26-4-4.5-5.93-6.76-2.84-3.26-5.66-6.55-8.51-9.81-1.75-2-3.54-4-5.29-6-2.86-3.26-5.69-6.53-8.54-9.79-1.75-2-3.53-4-5.28-6-3.06-3.51-6.09-7-9.17-10.55-2-2.26-4-4.44-6-6.69-2.43-2.74-4.8-5.53-7.21-8.29-2-2.26-3.88-4.58-5.93-6.75a133.22,133.22,0,0,1-11.22-12.75c-1.37-1.88-3.12-3.47-4.66-5.22-2.86-3.25-5.69-6.52-8.53-9.78-1.76-2-3.53-4-5.28-6-3.06-3.52-6.09-7.06-9.17-10.56-2-2.25-4-4.42-6-6.67-2.42-2.75-4.79-5.54-7.2-8.3-2.19-2.51-4.42-5-6.61-7.49q-3.63-4.12-7.22-8.28c-.87-1-1.62-2.12-2.51-3.11-7.34-8.18-14.76-16.28-22-24.52C60.4,984.27,53.72,976.39,47,968.58c-1.08-1.26-2.15-2.55-3.25-3.79-6.2-7-12.49-13.86-18.57-20.92a74.22,74.22,0,0,1-12.89-22.43c-1.54-4.05-2.79-8.21-4.32-12.26-1.29-3.42-2.75-6.78-4.23-10.13A6.31,6.31,0,0,0,0,895.91v-44a6.94,6.94,0,0,0,4.22-4c2.29-5.54,4.71-11,6.83-16.65a115.31,115.31,0,0,1,18.13-30.92c5.4-6.76,11.28-13.14,17-19.61,7.07-8,14.24-15.86,21.36-23.79.44-.49.83-1,1.27-1.54,6.73-7.82,13.41-15.69,20.24-23.43,7.27-8.24,14.7-16.34,22-24.52.89-1,1.65-2.09,2.52-3.1q3.58-4.17,7.2-8.3c2.2-2.5,4.43-5,6.63-7.47,2.64-3,5.23-6,7.87-9,1.76-2,3.61-3.93,5.35-5.95,6.75-7.81,13.41-15.69,20.21-23.46s13.75-15.4,20.62-23.1c.67-.75,1.23-1.58,1.89-2.33q3.9-4.55,7.85-9.06c2-2.26,4-4.47,6-6.73,2.85-3.25,5.68-6.53,8.52-9.79,2-2.26,3.94-4.51,5.9-6.78,2.18-2.52,4.31-5.08,6.52-7.57,6.62-7.48,13.33-14.89,19.89-22.42s12.92-15.24,19.47-22.78c6.35-7.28,12.84-14.43,19.24-21.66,1.1-1.25,2.07-2.61,3.15-3.88,2.16-2.53,4.35-5,6.54-7.55,6.14-7,12.31-14,18.42-21.06,6.53-7.55,12.94-15.21,19.52-22.73,6.8-7.76,13.91-15.27,20.59-23.13,8.63-10.15,17.11-20.42,26.22-30.15.69-.73,1.26-1.56,1.91-2.31q4.25-4.92,8.5-9.82c2-2.26,3.95-4.5,5.92-6.76,2.63-3,5.24-6,7.88-9,1.76-2,3.59-3.94,5.33-5.95,6.74-7.82,13.4-15.71,20.21-23.47s13.89-15.28,20.59-23.13c8.64-10.14,17.36-20.2,26.28-30.09a78.91,78.91,0,0,0,7.71-10.43c3-4.74,2.43-9.51-.83-14a23.44,23.44,0,0,0-2.57-3.05q-5.77-5.53-11.63-11c-2.93-2.71-6.05-5.23-8.9-8C439.94,241,428.37,229.44,416.72,218c-2.61-2.57-5.36-5-8.07-7.46-3-2.69-6-5.24-8.9-8-7.16-7-14.23-14.06-21.32-21.1-1.66-1.64-3.33-3.27-4.9-5a35.16,35.16,0,0,1-3.08-3.92c-2.2-3.26-1.41-6.69,1.94-8.46a30.39,30.39,0,0,1,4.54-2.06q10.4-3.57,20.83-7c94-31,187.7-63,281.92-93.33C702.52,54.28,725.21,46.47,748,39q48-15.81,95.93-31.54C849,5.74,854,3.73,858,0Z"/><path class="cls-1" d="M1664,928.52c.49,16.74-3.52,31.7-10.31,46.09a184.21,184.21,0,0,1-22,35.62c-1,1.31-2,2.64-3.14,3.89-6.17,7-12.43,13.9-18.55,20.93-6.56,7.53-13,15.17-19.5,22.74-1.74,2-3.6,3.94-5.36,5.94-2.64,3-5.24,6-7.85,9.06-.65.76-1.22,1.58-1.89,2.33-6.87,7.7-13.81,15.34-20.62,23.1-6.59,7.5-13,15.12-19.57,22.69-.87,1-1.65,2.1-2.56,3.07-8.91,9.46-17.12,19.52-25.56,29.39-6.71,7.84-13.79,15.36-20.6,23.12-6.58,7.51-13,15.15-19.53,22.72-1.74,2-3.56,4-5.31,6q-4.28,4.89-8.5,9.81c-.66.76-1.23,1.59-1.91,2.31-9.11,9.73-17.59,20-26.23,30.15-6.69,7.85-13.79,15.36-20.59,23.12-6.58,7.51-13,15.15-19.52,22.73-.87,1-1.68,2.08-2.59,3-8.68,9.22-16.7,19-24.91,28.64-6.69,7.86-13.78,15.37-20.58,23.14s-13.46,15.64-20.18,23.48c-.43.5-.84,1-1.28,1.53-6.88,7.7-13.82,15.34-20.63,23.09-6.6,7.51-13,15.13-19.59,22.68-2,2.27-4,4.46-6,6.71q-3.95,4.51-7.85,9.06c-.65.76-1.23,1.58-1.89,2.32q-11.73,13-23.46,25.93c-2,2.23-3.94,4.52-5.88,6.8-.87,1-1.61,2.14-2.49,3.12-7.58,8.42-15.23,16.77-22.75,25.23-4.42,5-8.67,10.11-12.93,15.23a17.57,17.57,0,0,0-2.11,3.38,8.58,8.58,0,0,0,.07,8.61,29.18,29.18,0,0,0,3.45,4.87c2.22,2.48,4.62,4.8,7,7.15q42.81,42.74,85.62,85.46c2.36,2.36,4.69,4.74,6.92,7.22a15.94,15.94,0,0,1,2.09,3.38,5.28,5.28,0,0,1-1.65,6.27,25.68,25.68,0,0,1-4.28,2.52c-2.76,1.16-5.59,2.17-8.44,3.12-39.84,13.26-79.59,26.82-119.55,39.7-80.57,26-160.68,53.31-241.09,79.75q-38.48,12.64-77,25.13c-9.2,3-18.27,6.3-27.2,10q-3.69,1.54-7.49,2.8a24.1,24.1,0,0,1-3.9.81c-2.67.42-4.78-1.36-4.51-3.92s.65-5.29,1.19-7.89c2.62-12.72,5.34-25.43,8-38.15,7.78-37.52,15.48-75,23.33-112.55,6.89-32.94,14-65.84,20.91-98.77,4.33-20.54,8.48-41.11,12.78-61.65,4.17-19.9,8.47-39.76,12.66-59.65q9-42.54,17.89-85.09,5.89-27.87,11.92-55.71c.56-2.61,1.17-5.21,1.92-7.77a17.75,17.75,0,0,1,1.68-3.59,5.12,5.12,0,0,1,6.16-1.91,15.19,15.19,0,0,1,3.4,2c2,1.74,3.9,3.63,5.8,5.5q10.66,10.54,21.3,21.11c5,4.92,9.85,9.94,15.45,14.19a69.13,69.13,0,0,1,6.55,6.16q21.66,21.47,43.28,43c1.89,1.88,3.73,3.82,5.74,5.57a28.56,28.56,0,0,0,4.85,3.47,12.7,12.7,0,0,0,13.32-.25c3.51-2,6.17-5,8.77-8.09,3.23-3.8,6.54-7.54,9.8-11.32q6.21-7.17,12.41-14.37,10.08-11.73,20.16-23.49c.65-.76,1.27-1.55,1.93-2.3,6.41-7.22,12.9-14.37,19.23-21.66,6.56-7.53,13-15.19,19.46-22.78,1.09-1.27,2.23-2.48,3.33-3.73,3.5-4,7-8.06,10.48-12.06,6.16-7,12.36-14,18.48-21,7-8,13.94-16.12,20.91-24.17,1.75-2,3.56-4,5.31-6,2.85-3.26,5.67-6.54,8.51-9.81l4.6-5.27c3.28-3.76,6.54-7.54,9.84-11.29,1.75-2,3.58-4,5.34-6,2.63-3,5.24-6,7.87-9,2-2.26,4-4.49,5.93-6.76,2.84-3.26,5.66-6.55,8.5-9.81,1.75-2,3.54-4,5.3-6q4.28-4.87,8.52-9.79c.65-.75,1.23-1.58,1.89-2.32,6.87-7.71,13.82-15.35,20.63-23.1,6.58-7.51,13-15.15,19.56-22.7,6.11-7,12.26-14,18.39-21.07,2.41-2.76,4.79-5.55,7.19-8.31,2-2.26,3.94-4.51,5.91-6.77q4.26-4.9,8.5-9.82c.87-1,1.65-2.09,2.56-3.06,8.9-9.47,17.12-19.54,25.55-29.41,6.7-7.85,13.8-15.36,20.61-23.11,8.58-9.75,17-19.6,25.55-29.41a18.6,18.6,0,0,0,4.88-14.73,27.2,27.2,0,0,0-1.73-6.73c-1.6-4.08-4.32-7.44-7.3-10.65-3.61-3.91-7-8-10.53-12-1.54-1.75-3.1-3.49-4.71-5.17a127.09,127.09,0,0,1-11.23-12.74c-1.37-1.87-3.13-3.45-4.67-5.2-2.86-3.25-5.68-6.54-8.54-9.79-2-2.25-4-4.46-6-6.71q-3.95-4.5-7.86-9c-.65-.75-1.22-1.58-1.89-2.32q-11-12.25-22.05-24.5c-1.78-2-3.49-4-5.23-6.06q-3.25-3.78-6.53-7.55-5.58-6.39-11.2-12.76c-1.54-1.75-3.15-3.44-4.69-5.19-2.86-3.25-5.69-6.52-8.53-9.79-.65-.75-1.23-1.58-1.89-2.32-7.35-8.17-14.77-16.28-22-24.51-6.83-7.74-13.51-15.6-20.25-23.42-.65-.75-1.24-1.57-1.91-2.31-7.35-8.17-14.78-16.27-22-24.51-6.83-7.73-13.48-15.63-20.24-23.43-2-2.26-4-4.43-6-6.68-2.42-2.74-4.8-5.53-7.2-8.29-2-2.26-3.88-4.58-5.94-6.75A133.22,133.22,0,0,1,1172.4,648c-1.37-1.87-3.12-3.46-4.66-5.21q-4.27-4.87-8.52-9.79c-1.09-1.26-2.1-2.6-3.24-3.81-8.47-9-16.18-18.58-24.24-27.89q-11.13-12.84-21.92-26a26.91,26.91,0,0,0-6-5.17,10.2,10.2,0,0,0-11.35-.23,23.38,23.38,0,0,0-4.79,3.56c-3.76,3.78-7.37,7.7-11,11.61-1.13,1.22-2,2.71-3.13,3.89-9.58,9.74-18.64,19.95-27.81,30.08-5.36,5.92-11.09,11.48-16.15,17.71-4,4.9-8.75,9.14-13.08,13.77-3.18,3.4-6.18,7-9.31,10.42s-6.3,6.88-9.52,10.25c-4.6,4.82-9.24,9.57-13.44,14.78-3.54,4.4-7.72,8.28-11.65,12.36-4.17,4.31-8.25,8.68-12.08,13.32-4,4.87-8.71,9.18-13,13.82-3.62,3.91-7.1,7.94-10.66,11.9-2,2.23-4,4.45-6.09,6.62-7.34,7.72-15.07,15.07-21.73,23.45-3.31,4.15-7.34,7.72-11.06,11.54a128.3,128.3,0,0,0-11.35,12.63,66.69,66.69,0,0,1-5.39,5.9c-8.25,8.7-16.94,17-24.56,26.28-4.41,5.4-9.69,10.09-14.58,15.1a128.15,128.15,0,0,0-11.38,12.59,61.28,61.28,0,0,1-5.39,5.9c-5.82,6-11.67,11.89-17.5,17.85a64,64,0,0,0-5.48,5.82c-5.05,6.68-11.09,12.42-16.88,18.4-5.33,5.5-10.67,11-15.55,16.91-4.21,5.14-9.15,9.68-13.79,14.47-3.94,4.06-7.8,8.18-11.4,12.58s-7.7,8.3-11.62,12.39c-4.39,4.56-8.94,9-12.7,14.1a53.34,53.34,0,0,1-4.7,5.17c-5.53,5.78-11.22,11.39-16.12,17.76-2.42,3.15-5.46,5.82-8.28,8.66a24.13,24.13,0,0,1-3.06,2.56c-5.41,3.78-10.46,3.62-15.58-.58a69.81,69.81,0,0,1-5.1-4.79q-15.81-16-31.59-32a37.88,37.88,0,0,1-3.43-3.63c-5.64-7.49-12.49-13.85-19-20.48-16.64-16.82-33.37-33.56-50-50.4-3.74-3.79-7.17-7.88-10.77-11.8-2.25-2.46-4.57-4.85-6.85-7.28-1.6-1.7-3.29-3.32-4.77-5.12-3.72-4.54-4.18-10.06-.89-14.8a113,113,0,0,1,8.73-10.91c3.56-4,7.45-7.63,11.16-11.46,6.26-6.46,12.6-12.81,18.34-19.77,4.65-5.64,10.13-10.6,15.23-15.86,4.88-5,9.71-10,14.18-15.46,4.23-5.12,9.15-9.68,13.78-14.47,4.87-5,9.69-10.06,14.18-15.46s9.61-10.16,14.47-15.19c4.64-4.79,9.2-9.62,13.48-14.75,4.47-5.36,9.61-10.17,14.47-15.2,4.63-4.79,9.39-9.44,13.44-14.78a88.49,88.49,0,0,1,6.81-7.31C706.06,674.58,714,667,721,658.42c4.4-5.4,9.72-10.06,14.53-15.14,3.2-3.39,6.21-6.95,9.31-10.43,1.78-2,3.53-4,5.36-5.92,8.5-8.93,17.43-17.42,25.25-27,4.2-5.14,9.23-9.61,13.88-14.38,4.19-4.29,8.46-8.49,12.06-13.33a65.31,65.31,0,0,1,5.4-5.89c8.27-8.68,17-16.93,24.55-26.29,4-4.9,8.82-9.07,13.16-13.69,3.64-3.88,7.1-7.93,10.67-11.89,2-2.22,4-4.43,6.1-6.6,8-8.45,16.48-16.48,23.86-25.57,4.18-5.15,9.27-9.57,13.84-14.42,3.42-3.63,6.64-7.45,10-11.15,2.46-2.72,4.94-5.41,7.47-8.07,6.89-7.23,14.1-14.14,20.36-22,3.51-4.41,7.86-8.15,11.72-12.29,3.63-3.9,7.1-7.95,10.65-11.91,1.78-2,3.56-4,5.4-5.9,6.9-7.23,14.09-14.16,20.33-22,3.3-4.16,7.4-7.67,11-11.58,3.84-4.14,7.55-8.42,11.34-12.62,1.78-2,3.57-4,5.43-5.87q8.07-8.19,16.2-16.33a114.16,114.16,0,0,1,33.42-23.32,84.36,84.36,0,0,1,23.94-6.84c1-.13,2-.13,3-.3,19.52-3.51,37.64,1.06,55.18,9.35a92.58,92.58,0,0,1,28.23,20.29c6.63,7,13.55,13.75,19.58,21.35,5.37,6.78,11.39,13,17.07,19.57,7.44,8.54,14.81,17.12,22.23,25.67,1.53,1.76,3.14,3.45,4.68,5.2,2.85,3.25,5.68,6.53,8.53,9.79,2,2.25,4,4.47,6,6.73,2.63,3,5.23,6,7.86,9,2.2,2.5,4.44,5,6.64,7.47,3.3,3.74,6.58,7.51,9.86,11.27.44.5.82,1.05,1.26,1.55,6.88,7.69,13.83,15.33,20.64,23.09s13.49,15.62,20.22,23.44c.44.51.83,1,1.27,1.54q10.68,11.91,21.36,23.79c2,2.24,3.94,4.51,5.91,6.77q3.61,4.14,7.21,8.29,3.93,4.53,7.83,9.08c.65.75,1.23,1.57,1.9,2.32,7.34,8.17,14.76,16.28,22,24.52,6.83,7.74,13.5,15.61,20.26,23.41,1.74,2,3.55,4,5.3,6,2.85,3.26,5.68,6.54,8.53,9.79,2,2.26,4,4.47,6,6.72q3.94,4.51,7.85,9.06c.65.75,1.22,1.58,1.89,2.32q11,12.27,22,24.52c1.78,2,3.49,4,5.23,6l6.52,7.56q4.26,4.9,8.52,9.79c2,2.26,4,4.46,6,6.72,2.64,3,5.24,6,7.86,9,1.75,2,3.52,4,5.27,6,3.06,3.51,6.11,7,9.18,10.54,1.76,2,3.57,4,5.33,6,3.74,4.24,7.46,8.51,11.2,12.76,1.54,1.75,3.15,3.43,4.69,5.19,2.86,3.25,5.67,6.54,8.52,9.79,2,2.26,4,4.47,6,6.72,2.63,3,5.22,6,7.85,9.06,2,2.26,4,4.48,6,6.74q3.95,4.5,7.86,9c1.09,1.26,2.07,2.62,3.21,3.83,8.67,9.23,16.7,19,24.88,28.66,6.24,7.37,12.85,14.43,19.17,21.72,5.88,6.8,11.64,13.7,17.4,20.61,4.26,5.11,8.63,10.16,12.62,15.49,7,9.36,13.06,19.28,17.19,30.33C1661.48,903.52,1664.76,916,1664,928.52Z"/></g></g></svg>