<svg xmlns="http://www.w3.org/2000/svg" viewBox="0 0 6061.92 2395.75"><defs><style>.cls-1{fill:#72c4f1;}</style></defs><title>PNG_Ashomsvg</title><g id="Layer_2" data-name="Layer 2"><g id="Layer_1-2" data-name="Layer 1"><path class="cls-1" d="M866,0a316.72,316.72,0,0,1-5.21,38.58c-3.26,16-6.91,31.91-10.38,47.86-3.11,14.33-6.24,28.65-9.28,43Q833,167.58,825,205.73q-11,52.32-22.15,104.63c-6,28.35-12.16,56.68-18.19,85-5.06,23.79-10,47.6-15.07,71.39-3.47,16.29-7,32.57-10.51,48.86-.56,2.6-.85,5.26-1.4,7.87-.68,3.25-1.31,6.54-2.3,9.7a7,7,0,0,1-9.88,3.83,17.94,17.94,0,0,1-4-2.85c-2.91-2.74-5.67-5.65-8.51-8.46q-14.22-14.06-28.47-28.09c-4.74-4.67-9.41-9.43-14.73-13.49a70.55,70.55,0,0,1-6.56-6.16c-11.84-11.71-23.64-23.48-35.53-35.16a55.43,55.43,0,0,0-7.58-6.46c-4.23-2.89-8.92-2.6-13,.51a28.52,28.52,0,0,0-4.3,4.14c-7.64,8.8-15.09,17.76-23,26.37-6.73,7.36-13,15.19-19.51,22.74-6.1,7-12.33,14-18.47,21q-10.17,11.67-20.27,23.4c-.66.76-1.21,1.6-1.88,2.34-6.87,7.71-13.8,15.36-20.61,23.12s-13.47,15.64-20.2,23.46c-.65.76-1.24,1.58-1.92,2.3-8.91,9.46-17.15,19.51-25.58,29.38-6.7,7.85-13.78,15.38-20.59,23.13-6.59,7.51-13,15.13-19.58,22.69-1.52,1.77-3.06,3.52-4.59,5.27-3.28,3.77-6.55,7.55-9.84,11.3-1.76,2-3.58,4-5.34,6-2.64,3-5.24,6-7.87,9-2,2.26-4,4.5-5.93,6.76-2.84,3.26-5.66,6.54-8.51,9.81-1.75,2-3.54,4-5.29,6q-4.27,4.88-8.52,9.79c-.87,1-1.64,2.11-2.56,3.07-8.92,9.45-17.13,19.52-25.55,29.41-6.26,7.35-12.85,14.42-19.18,21.71-6.56,7.53-12.94,15.22-19.47,22.77-6.33,7.3-12.77,14.5-19.13,21.76Q283.18,830.75,277,838q-11.07,12.88-22.1,25.79a35.54,35.54,0,0,0-2.51,3.11,12.06,12.06,0,0,0-.74,13.22,41.28,41.28,0,0,0,7.19,9.55C268.31,899.5,277,910,286,920.34c7,8.07,14.19,15.9,21.28,23.85,2.44,2.74,4.81,5.53,7.19,8.31.66.75,1.21,1.59,1.88,2.34,6.64,7.46,13.34,14.87,19.94,22.37,6.82,7.75,13.54,15.58,20.3,23.38,1.53,1.76,3,3.53,4.57,5.29,3.5,4,7,8,10.5,12,1.54,1.75,3.15,3.44,4.69,5.19,3.74,4.24,7.46,8.51,11.2,12.75,1.55,1.75,3.15,3.45,4.69,5.2,2.85,3.25,5.68,6.53,8.53,9.79,2,2.25,4,4.47,6,6.72,2.63,3,5.23,6,7.86,9.05,2.2,2.5,4.44,5,6.64,7.47,2.41,2.75,4.79,5.54,7.19,8.3,2,2.26,3.95,4.5,5.92,6.76,2.85,3.27,5.67,6.55,8.52,9.8,2,2.26,4,4.46,6,6.72,2.63,3,5.24,6,7.84,9.06.65.76,1.23,1.58,1.89,2.33,6.88,7.7,13.82,15.34,20.64,23.09,6.59,7.5,13.05,15.12,19.59,22.67,2,2.27,4,4.48,6,6.73,2.63,3,5.24,6,7.86,9,1.75,2,3.51,4,5.25,6q4.59,5.28,9.17,10.56c.87,1,1.67,2.08,2.58,3,8.65,9.24,16.74,19,24.83,28.71a52.09,52.09,0,0,0,6.35,6.34c3.38,2.87,7.26,3.06,11.26,1.37a15.28,15.28,0,0,0,6.3-4.81c5.69-7.44,12.63-13.72,19-20.5a39.5,39.5,0,0,0,2.75-2.9c6.5-8.51,14.65-15.51,21.54-23.62,8.22-9.67,17.52-18.29,25.79-27.85,7.87-9.09,16.61-17.33,24.41-26.41,7.61-8.87,16.11-16.88,23.72-25.69,7.19-8.34,15.16-16,22.3-24.28,6.95-8.11,14.71-15.45,21.6-23.56,7.34-8.66,15.6-16.45,22.94-25,6.07-7.1,12.82-13.57,18.81-20.69,7.3-8.7,15.63-16.43,22.95-25,7.79-9.15,16.23-17.65,24.54-26.29a26.44,26.44,0,0,0,2-2.19c6.68-8.79,14.78-16.26,22.39-24.19a49.7,49.7,0,0,0,4.11-4.37c5.83-7.77,13-14.33,19.64-21.29,4.39-4.56,8.9-9,12.75-14.07a88.36,88.36,0,0,1,6.8-7.31c7.58-8,15.56-15.51,22.47-24.13,3.73-4.66,8.32-8.63,12.43-13,3.18-3.4,6.2-6.95,9.32-10.42,2.22-2.48,4.44-5,6.72-7.39,6.41-6.77,13.24-13.14,18.94-20.59a37.72,37.72,0,0,1,6.52-6.15,13.73,13.73,0,0,1,8.34-3,11.13,11.13,0,0,1,7.52,2.21,57.56,57.56,0,0,1,5.21,4.66c6.34,6.38,12.63,12.81,18.94,19.23a23.41,23.41,0,0,1,2,2.18c6.9,9,15.3,16.7,23.15,24.86,5.55,5.75,11.38,11.23,16.22,17.65a60.13,60.13,0,0,0,5.49,5.81Q1072,889,1084.33,901.45a171.23,171.23,0,0,1,13.52,14.71,108.92,108.92,0,0,0,8.25,8.69c3,3.1,6.13,6.13,9.12,9.26a34.16,34.16,0,0,1,3.82,4.6c3.5,5.23,3.68,10.62.23,15.93a39.93,39.93,0,0,1-4.41,5.41c-9.08,9.74-17.52,20.08-27.14,29.33-6.24,8.29-14.15,15.06-20.8,22.93-7.55,8.93-16.09,16.9-23.64,25.76-6.72,7.89-13.89,15.29-21,22.72a40.59,40.59,0,0,0-3.42,3.65c-5.83,7.75-12.9,14.37-19.6,21.33a57.38,57.38,0,0,0-4.78,5.1c-5,6.7-11,12.46-16.84,18.44-4.64,4.78-9.21,9.6-13.45,14.77-4,4.88-8.73,9.16-13,13.79-3.41,3.65-6.66,7.45-10,11.15q-3.69,4.08-7.46,8.08c-6.87,7.25-14.11,14.14-20.36,22-3.51,4.41-7.86,8.16-11.72,12.3-3.63,3.9-7.1,7.94-10.67,11.89-2.24,2.47-4.49,4.93-6.79,7.34-7.12,7.47-14.56,14.63-21.05,22.71-3.74,4.66-8.26,8.69-12.45,13a157.12,157.12,0,0,0-12.06,13.33,101.26,101.26,0,0,1-7.46,8.06c-6,6.25-12.14,12.34-17.59,19.12-3.75,4.65-8.25,8.7-12.42,13-4.41,4.54-8.76,9.11-12.76,14.05-3.56,4.38-7.73,8.27-11.66,12.35-4.16,4.32-8.32,8.61-12.08,13.32-3.1,3.89-6.78,7.33-10.24,10.94-4.84,5-9.71,10-14.15,15.49-4,4.89-8.67,9.22-13.06,13.77s-8.93,9-12.72,14.09a65.18,65.18,0,0,1-5.41,5.89c-6,6.25-12.28,12.21-17.52,19.16a77.64,77.64,0,0,1-6.16,6.55c-5.31,5.53-10.81,10.86-15.45,17a85.29,85.29,0,0,1-6.81,7.31c-4.39,4.56-8.58,9.29-12.72,14.08-8.06,9.33-16.59,18.25-26.79,25.37-13.62,9.52-28.59,16-45,18.11-25.1,3.17-48.37-2.18-69-17.32-8.38-6.13-16.06-13-22.36-21.28a25,25,0,0,0-1.92-2.31c-8.48-8.93-17.14-17.69-25.07-27.17-4.69-5.6-10.19-10.51-14.6-16.41-1.79-2.39-4.12-4.36-6.12-6.59-2.67-3-5.27-6-7.9-9-1.53-1.75-3-3.54-4.56-5.29q-5.25-6-10.51-12c-.44-.5-.84-1-1.29-1.53-7.34-8.17-14.77-16.28-22-24.52-6.82-7.74-13.49-15.63-20.22-23.45-.43-.51-.82-1.06-1.26-1.55-6.88-7.7-13.82-15.34-20.63-23.1s-13.48-15.63-20.23-23.44c-1.74-2-3.57-4-5.33-6-2.65-3-5.26-6-7.89-9l-5.92-6.77c-2.84-3.26-5.67-6.54-8.51-9.8-1.76-2-3.54-4-5.3-6q-4.27-4.89-8.52-9.79c-.44-.5-.81-1.07-1.25-1.56-6.63-7.48-13.31-14.91-19.89-22.42-7-8-14-16.09-20.94-24.14l-4.6-5.27c-3.28-3.77-6.55-7.55-9.84-11.3-1.76-2-3.58-4-5.34-6-2.64-3-5.25-6-7.88-9-2-2.26-4-4.5-5.93-6.76-2.84-3.26-5.66-6.55-8.51-9.81-1.75-2-3.54-4-5.29-6-2.86-3.26-5.69-6.53-8.54-9.79-1.75-2-3.53-4-5.28-6-3.06-3.51-6.09-7-9.17-10.55-2-2.26-4-4.44-6-6.69-2.43-2.74-4.8-5.53-7.21-8.29-2-2.26-3.88-4.58-5.93-6.75a133.22,133.22,0,0,1-11.22-12.75c-1.37-1.88-3.12-3.47-4.66-5.22-2.86-3.25-5.69-6.52-8.53-9.78-1.76-2-3.53-4-5.28-6-3.06-3.52-6.09-7.06-9.17-10.56-2-2.25-4-4.42-6-6.67-2.42-2.75-4.79-5.54-7.2-8.3-2.19-2.51-4.42-5-6.61-7.49q-3.63-4.12-7.22-8.28c-.87-1-1.62-2.12-2.51-3.11-7.34-8.18-14.76-16.28-22-24.52C60.4,984.27,53.72,976.39,47,968.58c-1.08-1.26-2.15-2.55-3.25-3.79-6.2-7-12.49-13.86-18.57-20.92a74.22,74.22,0,0,1-12.89-22.43c-1.54-4.05-2.79-8.21-4.32-12.26-1.29-3.42-2.75-6.78-4.23-10.13A6.31,6.31,0,0,0,0,895.91v-44a6.94,6.94,0,0,0,4.22-4c2.29-5.54,4.71-11,6.83-16.65a115.31,115.31,0,0,1,18.13-30.92c5.4-6.76,11.28-13.14,17-19.61,7.07-8,14.24-15.86,21.36-23.79.44-.49.83-1,1.27-1.54,6.73-7.82,13.41-15.69,20.24-23.43,7.27-8.24,14.7-16.34,22-24.52.89-1,1.65-2.09,2.52-3.1q3.58-4.17,7.2-8.3c2.2-2.5,4.43-5,6.63-7.47,2.64-3,5.23-6,7.87-9,1.76-2,3.61-3.93,5.35-5.95,6.75-7.81,13.41-15.69,20.21-23.46s13.75-15.4,20.62-23.1c.67-.75,1.23-1.58,1.89-2.33q3.9-4.55,7.85-9.06c2-2.26,4-4.47,6-6.73,2.85-3.25,5.68-6.53,8.52-9.79,2-2.26,3.94-4.51,5.9-6.78,2.18-2.52,4.31-5.08,6.52-7.57,6.62-7.48,13.33-14.89,19.89-22.42s12.92-15.24,19.47-22.78c6.35-7.28,12.84-14.43,19.24-21.66,1.1-1.25,2.07-2.61,3.15-3.88,2.16-2.53,4.35-5,6.54-7.55,6.14-7,12.31-14,18.42-21.06,6.53-7.55,12.94-15.21,19.52-22.73,6.8-7.76,13.91-15.27,20.59-23.13,8.63-10.15,17.11-20.42,26.22-30.15.69-.73,1.26-1.56,1.91-2.31q4.25-4.92,8.5-9.82c2-2.26,3.95-4.5,5.92-6.76,2.63-3,5.24-6,7.88-9,1.76-2,3.59-3.94,5.33-5.95,6.74-7.82,13.4-15.71,20.21-23.47s13.89-15.28,20.59-23.13c8.64-10.14,17.36-20.2,26.28-30.09a78.91,78.91,0,0,0,7.71-10.43c3-4.74,2.43-9.51-.83-14a23.44,23.44,0,0,0-2.57-3.05q-5.77-5.53-11.63-11c-2.93-2.71-6.05-5.23-8.9-8C439.94,241,428.37,229.44,416.72,218c-2.61-2.57-5.36-5-8.07-7.46-3-2.69-6-5.24-8.9-8-7.16-7-14.23-14.06-21.32-21.1-1.66-1.64-3.33-3.27-4.9-5a35.16,35.16,0,0,1-3.08-3.92c-2.2-3.26-1.41-6.69,1.94-8.46a30.39,30.39,0,0,1,4.54-2.06q10.4-3.57,20.83-7c94-31,187.7-63,281.92-93.33C702.52,54.28,725.21,46.47,748,39q48-15.81,95.93-31.54C849,5.74,854,3.73,858,0Z"/><path class="cls-1" d="M2173.91,2395.75a15.17,15.17,0,0,0-2.36-1.84c-5.24-2.68-7.7-7.31-8.64-12.77-2.45-14.2-7.61-27.6-11.91-41.26-5.49-17.48-10.89-35-16.34-52.49-3.86-12.41-7.87-24.77-11.6-37.22-7.64-25.54-15.28-51.08-22.64-76.69a312.82,312.82,0,0,1-9.8-48c-1.4-11.2-3.08-22.43-2.7-33.83.2-6,1-11.93,1.5-17.89a150.6,150.6,0,0,1,4.56-24.53,111.91,111.91,0,0,1,21-42.77c9.58-12,20.62-22.7,33.73-31a209.42,209.42,0,0,1,54.64-24.21,381.53,381.53,0,0,1,47.75-10.71c10.87-1.66,21.76-3.14,32.63-4.79q19.76-3,39.48-6.23a28.71,28.71,0,0,0,5.64-1.81,2.91,2.91,0,0,0,1.31-3.43,19.94,19.94,0,0,0-1.39-2.63,231.28,231.28,0,0,0-31.82-35.79,55.55,55.55,0,0,0-26.49-13.31,41,41,0,0,0-16.87.29c-10.28,2.06-19.62,6.4-28.57,11.64a203.84,203.84,0,0,0-21.76,14.18c-3.95,3-8.21,5.71-12.45,8.35-5.31,3.31-10.75,3.21-16.05-.09a40.42,40.42,0,0,1-6.47-4.66c-5.54-5.22-7.56-11.61-5.55-19.09a39.2,39.2,0,0,1,1.3-3.78c6.65-17.47,14.32-34.45,24.13-50.42a112.24,112.24,0,0,1,16.51-21.25c6.16-6.1,12.21-12.24,19.57-17,11.66-7.56,24.37-12.1,37.91-14.82,23.93-4.8,45.57,1.54,65.95,13.53a151.57,151.57,0,0,1,29.79,23.41A382.54,382.54,0,0,1,2425,1902c.8,1.47,1.68,2.88,2.52,4.32,7.8,13.25,19.78,20.25,34.52,23.26,11.86,2.42,23.84,2.6,35.84,2.15a62.19,62.19,0,0,0,25-6.52,29.41,29.41,0,0,0,6-3.65c9.65-7.94,17.65-17.22,22.36-29,2.48-6.18,4.8-12.43,7-18.71a485.35,485.35,0,0,1,19.84-48c10.43-21.69,23.45-41.82,38-61a144.77,144.77,0,0,1,14.32-16.66,14.53,14.53,0,0,0,1.39-1.44c6.53-8.52,15-15.09,22.65-22.48,7.25-7,15.7-12.32,24.58-17a49.33,49.33,0,0,1,14.19-4.69c11.25-2.06,21.11.62,29.36,8.77a52,52,0,0,1,9.6,12.69,122.06,122.06,0,0,1,11.24,32c1.33,6.19,2.5,12.42,3.63,18.65.47,2.61.65,5.28.93,7.93s.44,5.31.78,8q5.53,42.56-19.16,77.64a27.78,27.78,0,0,1-2.45,3.16c-8,8.45-16,16.94-25.26,24.13-11.64,9-24.24,16.47-36.93,23.81a49.46,49.46,0,0,0-4.13,2.76c-.82.58-1.09,2.79-.42,3.71a15.19,15.19,0,0,0,2.58,3,12.6,12.6,0,0,0,7.4,2.7,27.84,27.84,0,0,0,7-.28c6.91-1.57,13.9-1.39,20.9-1.39l236,0c4,0,8-.06,12,0,12.73.08,25.22-2,37.62-4.59a73.54,73.54,0,0,0,11.43-3.6c12.91-5,21.66-14,25.89-27.27a51.06,51.06,0,0,0,2.81-15.69c0-9.33,0-18.66-.1-28a28.26,28.26,0,0,0-.48-6c-1.71-7.54-1.67-15.24-2.18-22.87-1-14.8,4.4-27.38,14.34-38.16a15.25,15.25,0,0,1,2.34-1.85,4.45,4.45,0,0,1,4.7.14,20.35,20.35,0,0,1,5.72,6.86,106.91,106.91,0,0,1,8.72,19.06c2.35,7.29,4.87,14.54,7.12,21.86a171.24,171.24,0,0,0,11.41,27.69c4.86,9.49,9.59,19,15.93,27.7,4.33,5.91,8.6,11.84,13.84,17.05a98.28,98.28,0,0,0,54.26,27.73,142.11,142.11,0,0,0,32.86,1.7c14.28-.92,28.52-2.59,42.47-6.07a79.07,79.07,0,0,0,20.2-8.51c9.18-5.25,14.87-13.27,18.13-23,2.76-8.24,3.68-16.9,4.36-25.55a18,18,0,0,0-.22-5c-2-9.83-1.52-19.9-2.91-29.82-1.2-8.52-1.28-17.27.9-25.83a33.8,33.8,0,0,1,5.17-11.83c3.13-4.31,6.34-8.57,9.56-12.81a8.25,8.25,0,0,1,1.54-1.25c.93-.74,3.1-.44,3.59.55a33.34,33.34,0,0,1,2.07,4.51c1.81,5.72,3.53,11.46,5.21,17.22,6.92,23.67,14,47.29,22,70.62,2.82,8.21,5.84,16.37,10.74,23.58,7.23,10.62,16,19.6,28.26,24.49a135.74,135.74,0,0,0,17.06,5.64,26.77,26.77,0,0,0,14.77-.58c10.9-3.37,21.48-12.81,22.31-27.77a46.64,46.64,0,0,0-.71-9.93c-1.5-9.24-4.23-18.18-7.1-27a50.39,50.39,0,0,0-14.18-22.6,61.06,61.06,0,0,1-14.94-21,41.76,41.76,0,0,1-3.24-25.31c1.84-9.71,5.85-18.43,10.85-26.71,4.82-8,10.27-15.58,15.49-23.31a7.17,7.17,0,0,1,2.18-2,2.25,2.25,0,0,1,1.89-.16,10.06,10.06,0,0,1,3.19,2.27c9.34,11.39,17.51,23.58,23.3,37.14a176.25,176.25,0,0,1,11.08,35.23c2.69,13.75,4.58,27.6,4.48,41.65,0,6.67.11,13.34.13,20a106.82,106.82,0,0,0,1,14.94,78.64,78.64,0,0,1,.63,11q.14,45.49.16,91c0,4.33,0,8.65-1.18,12.89-2.39,8.3-7.9,13.14-16.48,13.56-7.31.36-14.66.21-22,.06a27.87,27.87,0,0,1-6.84-1.27c-3.21-.89-6.37-2-9.51-3.08-9.79-3.45-19.91-5.47-30.08-7.35a149.78,149.78,0,0,0-28.83-2.39c-12.67.14-25.33.08-38,.15a115.91,115.91,0,0,0-16.92,1.28c-7.23,1.11-14.56,1.42-21.82,2.51-12.51,1.89-25.08,3.43-37.63,5-9.25,1.18-18.51,2.22-27.76,3.31-.67.08-1.35,0-2,.16-12.2,2.43-24.56,1.73-36.87,1.89-3.34,0-6.67,0-10,0a155.41,155.41,0,0,1-78.08-21.6,50.91,50.91,0,0,0-11.74-5.45,12.88,12.88,0,0,0-10.57,1.42c-1.14.69-2.2,1.5-3.31,2.24-11.13,7.49-23,13.62-35.89,17.27-11.85,3.36-23.89,6.08-36.35,6.15a73.78,73.78,0,0,0-9.95.83,89,89,0,0,1-23.91.06,106.2,106.2,0,0,0-11.94-.88q-22.5-.27-45-.29-87,0-174,.12c-3.66,0-7.33,0-11,.1-2,0-3.57.87-3.23,1.66a7.22,7.22,0,0,0,1.48,2.41,62.21,62.21,0,0,0,5.34,4.52c11.53,8.64,21.42,19.05,31.14,29.56a149.1,149.1,0,0,1,24.42,36.4,120.36,120.36,0,0,1,9.92,29.27,144,144,0,0,1,1.28,48.7,204.41,204.41,0,0,1-4.91,24.46,85.39,85.39,0,0,1-17,32.52,29.18,29.18,0,0,1-4.18,4.28c-10.71,8.51-22.65,14-36.58,14.19-6.66.1-13.33.13-20-.05-9.4-.26-18.49-2.5-27.46-5.06-19-5.43-37.11-13-53.69-23.88-5-3.29-9.85-6.86-14.64-10.46-3.72-2.81-7.3-5.8-10.85-8.83a58,58,0,0,1-5.73-5.57c-11-12.51-21.48-25.47-29.42-40.25a159.08,159.08,0,0,1-13.43-33.32c-2.38-8.67-4.1-17.51-6-26.3a45.35,45.35,0,0,1-.69-5.95,56.28,56.28,0,0,0-.42-6c-1.87-9.23-1.43-18.58-1.52-27.9,0-2.66-.08-5.33-.17-8a33.24,33.24,0,0,0-2.69-11.63c-3-7.24-8.1-12.44-15.86-13.9s-15.66-3.1-23.77-1.71a73.37,73.37,0,0,1-12,.56q-38.49.19-77,.29a112.14,112.14,0,0,0-18.93,1.15,59.46,59.46,0,0,1-9,.55c-6.66.13-13.33.16-20,.22a72.38,72.38,0,0,0-13.94,1.11,18.35,18.35,0,0,1-4,.5c-10-.27-19.89,1.75-29.85,2.46-5,.35-9.91,1.26-14.86,1.91a418.7,418.7,0,0,0-90.21,21.67,95.09,95.09,0,0,0-25.38,13.75,42.2,42.2,0,0,0-12.19,14.35,55.25,55.25,0,0,0-6.32,22.94,139.48,139.48,0,0,0,2.71,31.79c2.41,12.79,5.65,25.37,9.11,37.9,4.61,16.72,10.53,33,15.75,49.54,4,12.7,7.95,25.45,11.37,38.32a262.56,262.56,0,0,1,6.21,29.32c1.55,10.52,3.3,21.07,2.83,31.81-.2,4.65.08,9.33-.1,14-.17,4.32-.64,8.62-1,12.93-.11,1.33-.48,2.63-.55,4-.63,11.77-3.91,23-7.45,34.08-1,3.17-1.93,6.37-2.89,9.55ZM2558.07,2042c-.32,8.41,1.49,16.52,3.73,24.55a116.58,116.58,0,0,0,13.88,30.81c5.54,8.79,12.53,16.34,19.26,24.14a29.41,29.41,0,0,0,3.72,3.31c2.56,2.13,5.1,4.27,7.73,6.31a132.85,132.85,0,0,0,31.85,18.44c11.55,4.64,23.71,6.42,36,7.76a19.26,19.26,0,0,0,5-.17c3.93-.62,7.87-1.31,11.76-2.2a30.2,30.2,0,0,0,13.12-6.91,15.16,15.16,0,0,0,5.37-9.33c1.14-8,1-15.82-2.72-23.39a95.78,95.78,0,0,0-16.84-24.59c-5.5-5.78-11.21-11.37-16.95-16.92a97.51,97.51,0,0,0-7.64-6.39c-14-11-29.57-19.16-45.65-26.47-13.33-6.05-27-11.21-40.77-16.28a50.75,50.75,0,0,0-7.64-2.26c-5.09-1-9.33,1.16-11.34,5.92a25.35,25.35,0,0,0-1.74,6.7A55.84,55.84,0,0,0,2558.07,2042Zm134-206.43c0-1.67,0-2.34,0-3,.48-13.13-5.48-23-15.51-30.85a17.6,17.6,0,0,0-20.57-1.14,32.44,32.44,0,0,0-8.13,7.29c-7.86,9.52-14.81,19.7-21.88,29.79-15.88,22.68-29,47.06-43.95,70.35a28,28,0,0,0-2,4.54c-.33.79.85,2.13,1.74,1.93,3.24-.72,6.53-1.32,9.69-2.3,6.36-2,12.74-4,19-6.3,15-5.64,29.92-11.3,43.44-20.12,9.24-6,18.17-12.4,25.64-20.59C2687.42,1856.48,2692.55,1846.66,2692.06,1835.54Z"/><path class="cls-1" d="M1664,928.52c.49,16.74-3.52,31.7-10.31,46.09a184.21,184.21,0,0,1-22,35.62c-1,1.31-2,2.64-3.14,3.89-6.17,7-12.43,13.9-18.55,20.93-6.56,7.53-13,15.17-19.5,22.74-1.74,2-3.6,3.94-5.36,5.94-2.64,3-5.24,6-7.85,9.06-.65.76-1.22,1.58-1.89,2.33-6.87,7.7-13.81,15.34-20.62,23.1-6.59,7.5-13,15.12-19.57,22.69-.87,1-1.65,2.1-2.56,3.07-8.91,9.46-17.12,19.52-25.56,29.39-6.71,7.84-13.79,15.36-20.6,23.12-6.58,7.51-13,15.15-19.53,22.72-1.74,2-3.56,4-5.31,6q-4.28,4.89-8.5,9.81c-.66.76-1.23,1.59-1.91,2.31-9.11,9.73-17.59,20-26.23,30.15-6.69,7.85-13.79,15.36-20.59,23.12-6.58,7.51-13,15.15-19.52,22.73-.87,1-1.68,2.08-2.59,3-8.68,9.22-16.7,19-24.91,28.64-6.69,7.86-13.78,15.37-20.58,23.14s-13.46,15.64-20.18,23.48c-.43.5-.84,1-1.28,1.53-6.88,7.7-13.82,15.34-20.63,23.09-6.6,7.51-13,15.13-19.59,22.68-2,2.27-4,4.46-6,6.71q-3.95,4.51-7.85,9.06c-.65.76-1.23,1.58-1.89,2.32q-11.73,13-23.46,25.93c-2,2.23-3.94,4.52-5.88,6.8-.87,1-1.61,2.14-2.49,3.12-7.58,8.42-15.23,16.77-22.75,25.23-4.42,5-8.67,10.11-12.93,15.23a17.57,17.57,0,0,0-2.11,3.38,8.58,8.58,0,0,0,.07,8.61,29.18,29.18,0,0,0,3.45,4.87c2.22,2.48,4.62,4.8,7,7.15q42.81,42.74,85.62,85.46c2.36,2.36,4.69,4.74,6.92,7.22a15.94,15.94,0,0,1,2.09,3.38,5.28,5.28,0,0,1-1.65,6.27,25.68,25.68,0,0,1-4.28,2.52c-2.76,1.16-5.59,2.17-8.44,3.12-39.84,13.26-79.59,26.82-119.55,39.7-80.57,26-160.68,53.31-241.09,79.75q-38.48,12.64-77,25.13c-9.2,3-18.27,6.3-27.2,10q-3.69,1.54-7.49,2.8a24.1,24.1,0,0,1-3.9.81c-2.67.42-4.78-1.36-4.51-3.92s.65-5.29,1.19-7.89c2.62-12.72,5.34-25.43,8-38.15,7.78-37.52,15.48-75,23.33-112.55,6.89-32.94,14-65.84,20.91-98.77,4.33-20.54,8.48-41.11,12.78-61.65,4.17-19.9,8.47-39.76,12.66-59.65q9-42.54,17.89-85.09,5.89-27.87,11.92-55.71c.56-2.61,1.17-5.21,1.92-7.77a17.75,17.75,0,0,1,1.68-3.59,5.12,5.12,0,0,1,6.16-1.91,15.19,15.19,0,0,1,3.4,2c2,1.74,3.9,3.63,5.8,5.5q10.66,10.54,21.3,21.11c5,4.92,9.85,9.94,15.45,14.19a69.13,69.13,0,0,1,6.55,6.16q21.66,21.47,43.28,43c1.89,1.88,3.73,3.82,5.74,5.57a28.56,28.56,0,0,0,4.85,3.47,12.7,12.7,0,0,0,13.32-.25c3.51-2,6.17-5,8.77-8.09,3.23-3.8,6.54-7.54,9.8-11.32q6.21-7.17,12.41-14.37,10.08-11.73,20.16-23.49c.65-.76,1.27-1.55,1.93-2.3,6.41-7.22,12.9-14.37,19.23-21.66,6.56-7.53,13-15.19,19.46-22.78,1.09-1.27,2.23-2.48,3.33-3.73,3.5-4,7-8.06,10.48-12.06,6.16-7,12.36-14,18.48-21,7-8,13.94-16.12,20.91-24.17,1.75-2,3.56-4,5.31-6,2.85-3.26,5.67-6.54,8.51-9.81l4.6-5.27c3.28-3.76,6.54-7.54,9.84-11.29,1.75-2,3.58-4,5.34-6,2.63-3,5.24-6,7.87-9,2-2.26,4-4.49,5.93-6.76,2.84-3.26,5.66-6.55,8.5-9.81,1.75-2,3.54-4,5.3-6q4.28-4.87,8.52-9.79c.65-.75,1.23-1.58,1.89-2.32,6.87-7.71,13.82-15.35,20.63-23.1,6.58-7.51,13-15.15,19.56-22.7,6.11-7,12.26-14,18.39-21.07,2.41-2.76,4.79-5.55,7.19-8.31,2-2.26,3.94-4.51,5.91-6.77q4.26-4.9,8.5-9.82c.87-1,1.65-2.09,2.56-3.06,8.9-9.47,17.12-19.54,25.55-29.41,6.7-7.85,13.8-15.36,20.61-23.11,8.58-9.75,17-19.6,25.55-29.41a18.6,18.6,0,0,0,4.88-14.73,27.2,27.2,0,0,0-1.73-6.73c-1.6-4.08-4.32-7.44-7.3-10.65-3.61-3.91-7-8-10.53-12-1.54-1.75-3.1-3.49-4.71-5.17a127.09,127.09,0,0,1-11.23-12.74c-1.37-1.87-3.13-3.45-4.67-5.2-2.86-3.25-5.68-6.54-8.54-9.79-2-2.25-4-4.46-6-6.71q-3.95-4.5-7.86-9c-.65-.75-1.22-1.58-1.89-2.32q-11-12.25-22.05-24.5c-1.78-2-3.49-4-5.23-6.06q-3.25-3.78-6.53-7.55-5.58-6.39-11.2-12.76c-1.54-1.75-3.15-3.44-4.69-5.19-2.86-3.25-5.69-6.52-8.53-9.79-.65-.75-1.23-1.58-1.89-2.32-7.35-8.17-14.77-16.28-22-24.51-6.83-7.74-13.51-15.6-20.25-23.42-.65-.75-1.24-1.57-1.91-2.31-7.35-8.17-14.78-16.27-22-24.51-6.83-7.73-13.48-15.63-20.24-23.43-2-2.26-4-4.43-6-6.68-2.42-2.74-4.8-5.53-7.2-8.29-2-2.26-3.88-4.58-5.94-6.75A133.22,133.22,0,0,1,1172.4,648c-1.37-1.87-3.12-3.46-4.66-5.21q-4.27-4.87-8.52-9.79c-1.09-1.26-2.1-2.6-3.24-3.81-8.47-9-16.18-18.58-24.24-27.89q-11.13-12.84-21.92-26a26.91,26.91,0,0,0-6-5.17,10.2,10.2,0,0,0-11.35-.23,23.38,23.38,0,0,0-4.79,3.56c-3.76,3.78-7.37,7.7-11,11.61-1.13,1.22-2,2.71-3.13,3.89-9.58,9.74-18.64,19.95-27.81,30.08-5.36,5.92-11.09,11.48-16.15,17.71-4,4.9-8.75,9.14-13.08,13.77-3.18,3.4-6.18,7-9.31,10.42s-6.3,6.88-9.52,10.25c-4.6,4.82-9.24,9.57-13.44,14.78-3.54,4.4-7.72,8.28-11.65,12.36-4.17,4.31-8.25,8.68-12.08,13.32-4,4.87-8.71,9.18-13,13.82-3.62,3.91-7.1,7.94-10.66,11.9-2,2.23-4,4.45-6.09,6.62-7.34,7.72-15.07,15.07-21.73,23.45-3.31,4.15-7.34,7.72-11.06,11.54a128.3,128.3,0,0,0-11.35,12.63,66.69,66.69,0,0,1-5.39,5.9c-8.25,8.7-16.94,17-24.56,26.28-4.41,5.4-9.69,10.09-14.58,15.1a128.15,128.15,0,0,0-11.38,12.59,61.28,61.28,0,0,1-5.39,5.9c-5.82,6-11.67,11.89-17.5,17.85a64,64,0,0,0-5.48,5.82c-5.05,6.68-11.09,12.42-16.88,18.4-5.33,5.5-10.67,11-15.55,16.91-4.21,5.14-9.15,9.68-13.79,14.47-3.94,4.06-7.8,8.18-11.4,12.58s-7.7,8.3-11.62,12.39c-4.39,4.56-8.94,9-12.7,14.1a53.34,53.34,0,0,1-4.7,5.17c-5.53,5.78-11.22,11.39-16.12,17.76-2.42,3.15-5.46,5.82-8.28,8.66a24.13,24.13,0,0,1-3.06,2.56c-5.41,3.78-10.46,3.62-15.58-.58a69.81,69.81,0,0,1-5.1-4.79q-15.81-16-31.59-32a37.88,37.88,0,0,1-3.43-3.63c-5.64-7.49-12.49-13.85-19-20.48-16.64-16.82-33.37-33.56-50-50.4-3.74-3.79-7.17-7.88-10.77-11.8-2.25-2.46-4.57-4.85-6.85-7.28-1.6-1.7-3.29-3.32-4.77-5.12-3.72-4.54-4.18-10.06-.89-14.8a113,113,0,0,1,8.73-10.91c3.56-4,7.45-7.63,11.16-11.46,6.26-6.46,12.6-12.81,18.34-19.77,4.65-5.64,10.13-10.6,15.23-15.86,4.88-5,9.71-10,14.18-15.46,4.23-5.12,9.15-9.68,13.78-14.47,4.87-5,9.69-10.06,14.18-15.46s9.61-10.16,14.47-15.19c4.64-4.79,9.2-9.62,13.48-14.75,4.47-5.36,9.61-10.17,14.47-15.2,4.63-4.79,9.39-9.44,13.44-14.78a88.49,88.49,0,0,1,6.81-7.31C706.06,674.58,714,667,721,658.42c4.4-5.4,9.72-10.06,14.53-15.14,3.2-3.39,6.21-6.95,9.31-10.43,1.78-2,3.53-4,5.36-5.92,8.5-8.93,17.43-17.42,25.25-27,4.2-5.14,9.23-9.61,13.88-14.38,4.19-4.29,8.46-8.49,12.06-13.33a65.31,65.31,0,0,1,5.4-5.89c8.27-8.68,17-16.93,24.55-26.29,4-4.9,8.82-9.07,13.16-13.69,3.64-3.88,7.1-7.93,10.67-11.89,2-2.22,4-4.43,6.1-6.6,8-8.45,16.48-16.48,23.86-25.57,4.18-5.15,9.27-9.57,13.84-14.42,3.42-3.63,6.64-7.45,10-11.15,2.46-2.72,4.94-5.41,7.47-8.07,6.89-7.23,14.1-14.14,20.36-22,3.51-4.41,7.86-8.15,11.72-12.29,3.63-3.9,7.1-7.95,10.65-11.91,1.78-2,3.56-4,5.4-5.9,6.9-7.23,14.09-14.16,20.33-22,3.3-4.16,7.4-7.67,11-11.58,3.84-4.14,7.55-8.42,11.34-12.62,1.78-2,3.57-4,5.43-5.87q8.07-8.19,16.2-16.33a114.16,114.16,0,0,1,33.42-23.32,84.36,84.36,0,0,1,23.94-6.84c1-.13,2-.13,3-.3,19.52-3.51,37.64,1.06,55.18,9.35a92.58,92.58,0,0,1,28.23,20.29c6.63,7,13.55,13.75,19.58,21.35,5.37,6.78,11.39,13,17.07,19.57,7.44,8.54,14.81,17.12,22.23,25.67,1.53,1.76,3.14,3.45,4.68,5.2,2.85,3.25,5.68,6.53,8.53,9.79,2,2.25,4,4.47,6,6.73,2.63,3,5.23,6,7.86,9,2.2,2.5,4.44,5,6.64,7.47,3.3,3.74,6.58,7.51,9.86,11.27.44.5.82,1.05,1.26,1.55,6.88,7.69,13.83,15.33,20.64,23.09s13.49,15.62,20.22,23.44c.44.51.83,1,1.27,1.54q10.68,11.91,21.36,23.79c2,2.24,3.94,4.51,5.91,6.77q3.61,4.14,7.21,8.29,3.93,4.53,7.83,9.08c.65.75,1.23,1.57,1.9,2.32,7.34,8.17,14.76,16.28,22,24.52,6.83,7.74,13.5,15.61,20.26,23.41,1.74,2,3.55,4,5.3,6,2.85,3.26,5.68,6.54,8.53,9.79,2,2.26,4,4.47,6,6.72q3.94,4.51,7.85,9.06c.65.75,1.22,1.58,1.89,2.32q11,12.27,22,24.52c1.78,2,3.49,4,5.23,6l6.52,7.56q4.26,4.9,8.52,9.79c2,2.26,4,4.46,6,6.72,2.64,3,5.24,6,7.86,9,1.75,2,3.52,4,5.27,6,3.06,3.51,6.11,7,9.18,10.54,1.76,2,3.57,4,5.33,6,3.74,4.24,7.46,8.51,11.2,12.76,1.54,1.75,3.15,3.43,4.69,5.19,2.86,3.25,5.67,6.54,8.52,9.79,2,2.26,4,4.47,6,6.72,2.63,3,5.22,6,7.85,9.06,2,2.26,4,4.48,6,6.74q3.95,4.5,7.86,9c1.09,1.26,2.07,2.62,3.21,3.83,8.67,9.23,16.7,19,24.88,28.66,6.24,7.37,12.85,14.43,19.17,21.72,5.88,6.8,11.64,13.7,17.4,20.61,4.26,5.11,8.63,10.16,12.62,15.49,7,9.36,13.06,19.28,17.19,30.33C1661.48,903.52,1664.76,916,1664,928.52Z"/><path class="cls-1" d="M3975.65,982.2q0-64.47,0-129a120.92,120.92,0,0,0-1.15-19.93,63.63,63.63,0,0,1-.52-10c-.13-11.66-.2-23.32-.27-35a95.63,95.63,0,0,0-1.09-15.94,29.78,29.78,0,0,1-.15-6.94,5.63,5.63,0,0,1,4.51-4.75,31,31,0,0,1,4-.52c2-.11,4-.1,6-.1,23.33,0,46.65,0,70,0a71.78,71.78,0,0,1,9.93.73,4.86,4.86,0,0,1,4.07,3.94,39.17,39.17,0,0,1,.83,6.91,135.09,135.09,0,0,0,1.48,16.91c.66,4.26.49,8.64.84,13a27,27,0,0,0,1.06,4.82c.31,1.14,2.55,1.82,3.35,1a48.06,48.06,0,0,0,3.41-3.58c8.55-10.26,17.74-19.86,28.5-27.88,15.55-11.59,33.18-18.16,52-21.93a134.6,134.6,0,0,1,37.82-1.88c18.44,1.55,36.1,6.28,51.83,16.6A95.82,95.82,0,0,1,4288,808.14a35.81,35.81,0,0,0,3.3,4.92c.28.35,1.25.36,1.83.22a3.59,3.59,0,0,0,1.64-1.06,68,68,0,0,0,5.24-6c3.7-5.19,8.23-9.6,12.66-14.12A133.34,133.34,0,0,1,4347.3,767c13.51-7,27.8-10.92,42.68-13.5a140.91,140.91,0,0,1,33.87-1.25,114.94,114.94,0,0,1,45,12.42,100.62,100.62,0,0,1,23.54,16.73c15.51,14.84,26.13,32.63,33.2,52.78a195.3,195.3,0,0,1,9.73,43.82,351.61,351.61,0,0,1,2.53,38.85c-.25,66-.11,132-.13,197.94,0,3.66,0,7.33-.23,11-.25,4-2.31,5.81-6.49,6.11-1.66.12-3.33.17-5,.17q-45,0-90,0c-2.33,0-4.66-.17-7-.4a5.39,5.39,0,0,1-4.63-4.57,31.09,31.09,0,0,1-.41-4c-.07-3.33-.06-6.67-.06-10q0-89,0-177.95c0-4.66-.18-9.33,0-14,.34-9.07-1.12-17.94-2.68-26.8a82.77,82.77,0,0,0-6.91-20.81,53.56,53.56,0,0,0-16.36-19.9c-6-4.56-13.09-6.59-20.45-7.4-9.37-1-18.58-.32-27.52,3.22-8.33,3.3-17.45,10-22.75,17.29-1,1.35-1.85,2.77-2.85,4.1-6.4,8.54-9.13,18.4-10.5,28.78-1.67,12.57-2,25.2-1.94,37.87q.17,89,0,178c0,4-.26,8-.56,12a4.93,4.93,0,0,1-3.92,4,73.07,73.07,0,0,1-8,.56c-11,.06-22,0-33,0h-51c-2.66,0-5.33,0-8-.1-5.72-.27-7.42-2.09-7.68-8.15-.1-2.33-.08-4.66-.08-7q0-24,0-48,0-73,0-146a136.61,136.61,0,0,0-1.77-23.87,110.76,110.76,0,0,0-6.18-22.07,56.1,56.1,0,0,0-16.53-22.23c-6.08-5.12-13.43-7.32-21.1-8.36-12.62-1.72-24.58.33-35.49,7.22a38.17,38.17,0,0,0-4.89,3.46c-7.85,6.85-14.49,14.55-18.87,24.23a80.11,80.11,0,0,0-7,28.94c-.24,4.32-.11,8.67-.11,13q0,96,0,191.94c0,4-.18,8-.47,12a5.11,5.11,0,0,1-4.62,4.53,67.89,67.89,0,0,1-7,.42q-44,0-88,0a50.23,50.23,0,0,1-7.94-.65,4.4,4.4,0,0,1-3.45-3.27,16.41,16.41,0,0,1-.66-3.92c-.11-3.33-.11-6.66-.11-10v-132Z"/><path class="cls-1" d="M2505.42,1132q-24.48,0-49,0c-3,0-6-.19-9-.46a5.6,5.6,0,0,1-4.69-3.33,67.89,67.89,0,0,1-3.15-8.4c-4.8-16-9.49-31.94-14.26-47.89q-7-23.46-14.11-46.9c-1.25-4.14-2.47-8.3-3.73-12.44-.59-1.91-1.17-3.82-1.89-5.68a7.38,7.38,0,0,0-6.89-4.92c-1-.07-2-.16-3-.18-2,0-4,0-6,0H2272.82c-3,0-6,.07-9,.19-3.78.15-6.14,2.24-7.39,5.7-.57,1.56-1.12,3.14-1.57,4.74q-8,28.89-16,57.79-7.35,26.47-14.73,53c-.27,1-.54,1.93-.84,2.88-1.14,3.51-3.41,5.66-7.24,5.82-2.66.1-5.33.18-8,.18q-46.48,0-93,0c-3,0-6-.32-8.93-.57a3.2,3.2,0,0,1-2.26-2.94,52,52,0,0,1,1.24-6.83c2-7.05,4.16-14.06,6.31-21.06,6.17-20.06,12.42-40.1,18.55-60.17,5.63-18.48,11.12-37,16.72-55.5,3.28-10.84,6.67-21.65,10-32.47q3.51-11.48,7-23,8.51-28.23,17-56.45c3.19-10.53,6.48-21,9.68-31.53q9.15-30.12,18.25-60.26c3.2-10.52,6.47-21,9.67-31.53,3.3-10.83,6.54-21.69,9.82-32.53q4.49-14.82,9-29.63c6-19.43,12-38.83,17.84-58.3,2.35-7.87,3.81-9.13,11.82-9.22,2,0,4,0,6,0q61,0,121.95,0c3.66,0,7.33.15,11,.47a5.6,5.6,0,0,1,4.68,3.34,64.53,64.53,0,0,1,2.82,7.46q8.52,27.18,16.94,54.39,7.4,23.85,14.74,47.74c3.95,12.72,8,25.43,11.93,38.15q8.16,26.25,16.28,52.5,5.49,17.65,11,35.3c4.6,14.61,9.26,29.21,13.84,43.84q10.17,32.41,20.26,64.86,9.08,29.1,18.1,58.22,9.64,31,19.35,62,5.07,16.22,10.12,32.43c.49,1.59.93,3.2,1.29,4.83.74,3.4-1.1,5.89-4.69,6.15-3,.22-6,.27-9,.28Q2529.41,1132.05,2505.42,1132ZM2331.65,913.94h38c2.66,0,5.33,0,8-.06,7.26-.26,8.77-2.33,6.72-9.48-2.76-9.6-5.66-19.15-8.47-28.74-5.33-18.21-10.52-36.46-16-54.63-5.75-19.13-11.35-38.3-16.15-57.69q-5.64-22.79-11.44-45.53a45.57,45.57,0,0,0-1.84-5.66c-.17-.44-1-.69-1.57-.88-.2-.07-.72.27-.8.51-1.09,3.48-2.31,6.93-3.14,10.48-3.47,14.91-7.05,29.8-10.16,44.79-3.87,18.6-9.09,36.84-14.12,55.13-7.5,27.28-15.32,54.48-23,81.71-.36,1.28-.68,2.58-.93,3.88-.58,3,1.11,5.52,4,5.77s6,.38,9,.38C2303.68,914,2317.67,913.94,2331.65,913.94Z"/><path class="cls-1" d="M5225.64,1045V827.16c0-6.66.06-13.32-1.25-19.91a22.07,22.07,0,0,1-.36-4c-.13-11.66-.31-23.32-.28-35,0-5.92,1.95-7.78,7.72-8.09,2.33-.12,4.66-.1,7-.1q35,0,70,0a86.94,86.94,0,0,1,9.95.56,5.41,5.41,0,0,1,4.92,4.36,99.45,99.45,0,0,1,2.22,12.77c.47,6,.82,11.95,1.83,17.87.5,2.94.34,6,.6,9a27.32,27.32,0,0,0,.81,3.86c.18.78,2,1.42,2.53.88,3-3.13,6.23-6.06,8.83-9.48,3.67-4.84,8.24-8.62,12.75-12.58a153.13,153.13,0,0,1,19.4-14c11.13-7,23.27-11.51,35.83-15a121.87,121.87,0,0,1,25.52-4.63,43.57,43.57,0,0,0,5-.59c8.95-1.55,17.84-1.16,26.85-.08s17.82,2.35,26.48,4.86a144.65,144.65,0,0,1,35.55,15.63c13.25,8.1,24.37,18.54,34.69,29.9A134.78,134.78,0,0,1,5579,827c9,15.65,16.54,31.94,20.91,49.56a272.13,272.13,0,0,1,6.37,33.33,229,229,0,0,1,1.54,25.89c0,5-.16,10,0,15,.41,11-1.1,21.94-2.65,32.81a218.05,218.05,0,0,1-15.57,55.66c-8.51,19.75-19.86,37.57-35,53a161.91,161.91,0,0,1-39.77,29.89,151.77,151.77,0,0,1-46.07,16,133.59,133.59,0,0,1-23.85,2c-5,0-10-.12-15,0-16.69.31-32.29-4.21-47.38-10.77a100.7,100.7,0,0,1-23.22-13.59,110.49,110.49,0,0,1-14.17-14,1.71,1.71,0,0,0-3,.69,10.75,10.75,0,0,0-.36,3c-.05,3-.05,6-.05,9q0,76,0,151.91c0,3.66-.19,7.32-.5,11a5.15,5.15,0,0,1-4.68,4.48,67.87,67.87,0,0,1-7,.41q-46,0-92,0a58,58,0,0,1-7-.47,5.27,5.27,0,0,1-4.47-4.71,35.07,35.07,0,0,1-.37-4c-.06-3.33-.06-6.66-.06-10V1045Zm116.19-96.58h0q0,14.47,0,28.95a77.94,77.94,0,0,0,11.22,40.89c3.42,5.72,7.22,11.25,12.36,15.57a78,78,0,0,0,17.51,11.44,65.89,65.89,0,0,0,35,6.13,86.41,86.41,0,0,0,23.21-5.71,64.77,64.77,0,0,0,22.8-15.81,82,82,0,0,0,17.36-27.79,151.53,151.53,0,0,0,8.76-39.82,173,173,0,0,0,0-30.79,153.69,153.69,0,0,0-8.79-39.82c-5.34-14.47-14.9-25.83-26.59-35.57a22.53,22.53,0,0,0-3.3-2.24c-10.87-6.15-22.27-10.48-35-10.06-3.33.1-6.67-.06-10,.12a47.67,47.67,0,0,0-7.9,1A67.09,67.09,0,0,0,5359,870.41c-11,14.42-17,30.77-17.14,49.09C5341.79,929.15,5341.83,938.8,5341.83,948.46Z"/><path class="cls-1" d="M5679.62,1045.17V826.29c0-6.33,0-12.65-1.22-18.91a27.68,27.68,0,0,1-.43-5q-.2-16.49-.28-33a23.41,23.41,0,0,1,.52-4.94,4.53,4.53,0,0,1,3.22-3.5,17.23,17.23,0,0,1,3.9-.74c2.32-.14,4.66-.13,7-.13q35,0,70,0c3,0,6,.07,9,.32,3.47.29,5.62,2.17,6.29,5.43a108.36,108.36,0,0,1,1.89,10.82c1,9.6,1.69,19.23,2.55,28.84a19.71,19.71,0,0,0,.68,2.88c.21.85,1.92,1.57,2.47,1,2.79-2.84,5.89-5.46,8.24-8.63,6.46-8.71,14.95-15.19,23.52-21.45,16.12-11.77,34.33-18.91,53.78-23.11,9.47-2,19.11-2.79,28.69-3.93a60.64,60.64,0,0,1,17.93.52,43.58,43.58,0,0,0,4.94.73c15.5,1.05,30,5.74,44.17,11.86a113.67,113.67,0,0,1,15.73,8.68c24.51,15.59,42.59,36.83,56.12,62.39,10.57,20,17.09,41.22,20.71,63.35,1.71,10.48,3.27,21.06,2.89,31.79-.21,6,0,12,0,18a227.71,227.71,0,0,1-19.32,92.23,166.83,166.83,0,0,1-33.79,50.32,162,162,0,0,1-39.75,29.92,152.92,152.92,0,0,1-46,16,140.09,140.09,0,0,1-24.85,2c-4.66,0-9.33-.12-14,0-17,.3-32.94-4.32-48.3-11.13a99.88,99.88,0,0,1-22.33-13.15,109.14,109.14,0,0,1-14.17-14,4.21,4.21,0,0,0-1.72-.8c-.65-.25-1.51,1-1.59,2.24s-.17,2.65-.18,4c0,2.67,0,5.33,0,8q0,75.45,0,150.91c0,3.66-.17,7.32-.47,11a5.16,5.16,0,0,1-4.59,4.57,67.55,67.55,0,0,1-7,.44q-46,0-92,0a64.87,64.87,0,0,1-7-.45,5.37,5.37,0,0,1-4.58-4.61,32.92,32.92,0,0,1-.38-4c-.07-3.33-.07-6.66-.07-10V1045.17Zm116.19-96.29h.06c0,10.65-.26,21.31.06,32,.48,16.08,5.78,30.56,15.19,43.63a54.72,54.72,0,0,0,15.84,15c.85.53,1.68,1.09,2.51,1.65,12.07,8.11,25.58,11,39.86,10.52,8.34-.3,16.41-2.49,24.29-5.31,9.32-3.32,17.19-9,23.88-16a81.44,81.44,0,0,0,18.26-29.53c4.46-12.6,7.69-25.47,8.15-38.93a60.44,60.44,0,0,1,.85-7.93,41.32,41.32,0,0,0,0-13.9,58.83,58.83,0,0,1-.88-7.93c-.39-12.78-3.49-25-7.45-37.05-5.16-15.68-14.84-28.13-27.37-38.56a27,27,0,0,0-4.11-2.82c-10.89-6.12-22.32-10.37-35.09-9.86-3.33.13-6.66,0-10,.14a41.28,41.28,0,0,0-6.92.85,67.45,67.45,0,0,0-40.28,25.93c-10.86,14.5-16.86,30.87-16.89,49.18C5795.79,929.57,5795.81,939.22,5795.81,948.88Z"/><path class="cls-1" d="M3092,862q0-125.44,0-250.9c0-3.67,0-7.34.16-11a14.17,14.17,0,0,1,.79-3.89,5.16,5.16,0,0,1,3.47-3.33,16.26,16.26,0,0,1,3.92-.67c2.33-.13,4.66-.14,7-.14h86c2.33,0,4.67,0,7,.11,5.43.29,7.3,2,7.58,7.2.14,2.66.13,5.33.13,8q0,35,0,70,0,57,0,114c0,3.32.14,6.65.33,10,0,.55.62,1.1,1,1.57s1.95.15,2.65-.67,1.25-1.56,1.9-2.31c2-2.27,3.85-4.6,5.9-6.78a127.41,127.41,0,0,1,35.22-25.93,123.93,123.93,0,0,1,33.83-11.85c7.19-1.34,14.47-2.31,21.75-3a51.36,51.36,0,0,1,14.94.65c6.54,1.25,13.23,1.28,19.78,2.72a114.68,114.68,0,0,1,48.28,22.95c1.81,1.47,3.76,2.79,5.46,4.37,2.67,2.5,5.22,5.13,7.75,7.77.91,1,1.58,2.14,2.43,3.17,15.45,18.63,24.52,40.29,29.86,63.64,1.77,7.79,2.87,15.73,4.24,23.6a26.54,26.54,0,0,1,.37,4,154.09,154.09,0,0,0,1.63,20.9,55.9,55.9,0,0,1,.33,9q0,101.46,0,202.92c0,2.67,0,5.34-.24,8-.27,3.53-2.29,5.66-5.61,5.91-2.65.2-5.32.26-8,.26q-33.48,0-67,0c-8.34,0-16.67.07-25,0-8.58-.12-9.92-1.48-10.14-9.79-.08-3,0-6,0-9,0-60-.1-120,.09-179.94a212.47,212.47,0,0,0-2.51-31.83c-1.86-12.6-5.86-24.57-13.66-35a42.7,42.7,0,0,0-11.47-11,53.89,53.89,0,0,0-11.66-5.65,59.31,59.31,0,0,0-17.6-3.46c-20.87-.33-38.49,6.77-51.26,23.95a74.65,74.65,0,0,0-9.94,18.43c-2.57,6.9-3.27,14.25-3.64,21.58-.19,3.66-.07,7.33-.07,11q0,97,0,193.92c0,3.67-.05,7.34-.3,11-.22,3.37-2.36,5.3-5.9,5.59-2,.16-4,.23-6,.23q-46,0-92,0c-2,0-4-.07-6-.24-3.32-.3-5.29-2.39-5.61-5.93-.15-1.65-.2-3.32-.22-5,0-3,0-6,0-9Z"/><path class="cls-1" d="M3707.91,1140.07c-3,0-6,0-9,0-24.32.2-47.53-5.19-70.16-13.74-17.63-6.66-33.31-16.47-48.07-28.11s-26.61-26-36.52-42c-12.81-20.62-20.8-43-24.79-67a269.81,269.81,0,0,1-3.41-52.71,29.78,29.78,0,0,1,.14-3c1.94-15.18,3.42-30.43,7.55-45.26,3.32-11.9,7.18-23.62,12.54-34.72,7.7-16,17.25-30.77,30-43.3q4.64-4.54,9.2-9.16c7.79-7.86,16.72-14.19,26.07-20,20.34-12.74,42.71-20.13,66-24.87,14-2.86,28.24-4.66,42.64-4.32,4,.09,8,0,12,0a115.54,115.54,0,0,1,17.9,1.28c6.57,1,13.22,1.47,19.75,2.88,29.44,6.34,56.47,18,79.78,37.27A161.56,161.56,0,0,1,3870,826.21a180.91,180.91,0,0,1,22.5,44.41,216,216,0,0,1,9.86,41.71,182.81,182.81,0,0,1,1.55,22.88q.06,8.49,0,17a212,212,0,0,1-17.66,82.44c-5.29,12.33-12.61,23.47-20.58,34.16-14.34,19.25-32.3,34.34-53.28,46a202.89,202.89,0,0,1-31.84,14.34,228.67,228.67,0,0,1-36.81,9C3731.84,1140.16,3719.89,1140,3707.91,1140.07Zm76-193.81h-.08c0-5.66.07-11.33,0-17a76.61,76.61,0,0,0-.61-9,166.63,166.63,0,0,0-8.15-33.93,102.93,102.93,0,0,0-14.61-27.15,60.7,60.7,0,0,0-14.42-13.66,58.75,58.75,0,0,0-18-8.44c-6.7-1.85-26.9-2.07-33.75-.12-12.43,3.56-23.38,9.78-31.79,19.73a93.47,93.47,0,0,0-13.39,21c-7.68,16.55-10.7,34.24-13,52.12-.26,16-1,31.94,1.93,47.81a163.26,163.26,0,0,0,8.44,30.78,96.68,96.68,0,0,0,11.24,21.12,73,73,0,0,0,16.1,16.25c7.94,5.85,16.88,9.05,26.57,10.84,16.27,3,31-.5,44.87-9.1a53,53,0,0,0,12.7-11.18,98.16,98.16,0,0,0,18.24-33.05c4.89-15.26,8.09-30.91,7.79-47.09C3783.9,952.92,3784,949.59,3784,946.26Z"/><path class="cls-1" d="M5134,972.59q0,37.5,0,75a101.21,101.21,0,0,0,1,15.94,75.3,75.3,0,0,1,.63,10c.14,6.33,0,12.66.26,19,.13,4,.58,8,1,11.94.77,7.28,1.66,14.55,2.41,21.83a4.9,4.9,0,0,1-4.68,5.42c-2.32.22-4.66.34-7,.34q-40,0-80,0a57.94,57.94,0,0,1-7-.41,5.12,5.12,0,0,1-4.49-3.49,60.33,60.33,0,0,1-2.11-7.69c-1-4.91-1.66-9.86-2.65-14.76a52.48,52.48,0,0,0-2-6.65c-.36-1.07-2.58-1.8-3.43-1.2a27.76,27.76,0,0,0-3.17,2.4c-3.13,3-6.21,6-9.27,9.11a60,60,0,0,1-11.81,9.2c-14.4,8.56-29.48,15.49-46,18.85-8.18,1.66-16.39,2.91-24.78,2.71-5.66-.13-11.33,0-17,0a109,109,0,0,1-50.06-12c-6.83-3.5-13.57-7.06-19.65-11.84a109.12,109.12,0,0,1-33.85-43.81,132.31,132.31,0,0,1-7.12-22.87,54.72,54.72,0,0,1-1.48-11.88c0-7.33-.14-14.66,0-22a103.56,103.56,0,0,1,7.11-35.11A121.33,121.33,0,0,1,4827,948.46a107.89,107.89,0,0,1,17.65-17.64,172.22,172.22,0,0,1,48.68-27.12,288.84,288.84,0,0,1,55.17-13.9c8.23-1.26,16.47-2.41,24.74-3.4a108.49,108.49,0,0,1,11-.52,120.89,120.89,0,0,0,17.92-1.29c3.6-.61,7.3-.62,10.94-1a5.31,5.31,0,0,0,4.5-4.69,33.76,33.76,0,0,0-7.69-26c-8.94-11-20.95-16.15-34.38-18.68-14.85-2.81-29.72-2.72-44.75-.85a223.28,223.28,0,0,0-37.15,7.56c-13.44,4.06-26.54,8.88-38.82,15.77a10.91,10.91,0,0,1-3.67,1.43,3.16,3.16,0,0,1-2.56-1.06,16,16,0,0,1-2-4.53q-8.18-28.34-16.21-56.71a63.3,63.3,0,0,1-1.57-7.82,3.82,3.82,0,0,1,1.49-3.54,30.62,30.62,0,0,1,4.15-2.73,180.26,180.26,0,0,1,23.88-10.24c17.26-6.26,34.8-11.53,53-14.34,8.22-1.27,16.39-2.94,24.74-3.28a19.77,19.77,0,0,0,3-.22c10.55-2.11,21.24-1.61,31.9-1.69,4.66,0,9.33,0,14,.05a90.56,90.56,0,0,1,13.94,1.11c6.9,1.09,13.89,1.52,20.76,2.94,16.09,3.3,31.64,8.12,46.14,16a117.35,117.35,0,0,1,48.15,48,154.66,154.66,0,0,1,16.83,47.89c1.81,10.49,3.34,21,3.27,31.76-.16,24.33,0,48.66,0,73ZM5021.89,987h0c0-5.32,0-10.64,0-16,0-2.32-.05-4.65-.24-7-.32-3.89-2.39-5.8-6.51-6.1-1.66-.13-3.32-.11-5-.17-11.69-.38-23.19,1.26-34.68,3.15a127,127,0,0,0-25.83,7.42c-12.09,4.75-22,12.26-28.64,23.68a35.11,35.11,0,0,0-5.1,16,113.75,113.75,0,0,0,0,13.94c1,13.59,7.9,23.74,19.08,31.08,6.41,4.2,21.07,7.09,28.86,6.11,1-.13,2-.35,2.95-.51,1.31-.23,2.62-.42,3.93-.65,17.93-3,32.07-11.87,42.44-27a48.23,48.23,0,0,0,8.69-28.08C5021.88,997.65,5021.89,992.33,5021.89,987Z"/><path class="cls-1" d="M2888.24,709.89a27,27,0,0,1,20.22,7.69c4.34,4.11,8.34,8.6,12.39,13,3.15,3.43,6.13,7,9.18,10.54q10.45,12.08,20.9,24.16c.44.5.82,1.05,1.26,1.55q10.67,11.89,21.34,23.8c2.21,2.48,4.37,5,6.53,7.55.86,1,1.62,2.12,2.5,3.11,6.88,7.7,13.83,15.33,20.64,23.08,6.59,7.49,13.05,15.11,19.57,22.67,1.74,2,3.54,4,5.3,6,2.85,3.25,5.67,6.53,8.52,9.78,2.2,2.5,4.48,4.93,6.63,7.47,3.66,4.32,7.39,8.59,10.78,13.11a52.36,52.36,0,0,1,5,8.64c4,8.29,4,16.72.28,25.12a63.27,63.27,0,0,1-11.34,17.55c-9,9.79-17.69,19.9-26.31,30-6.68,7.86-13.73,15.4-20.57,23.13-4.41,5-8.75,10-13.09,15.09q-9.75,11.35-19.48,22.76c-1.73,2-3.59,3.93-5.35,5.93-2.64,3-5.23,6-7.85,9-1.74,2-3.51,4-5.26,6q-4.59,5.28-9.17,10.55c-1.31,1.51-2.53,3.11-4,4.49-6.52,6.24-11.79,13.57-17.88,20.19a16.16,16.16,0,0,0-1.71,2.44,5.34,5.34,0,0,0,.31,5.67c1.69,2.05,3.44,4.06,5.31,6,6.56,6.63,13.21,13.17,19.76,19.82a37.93,37.93,0,0,1,3.63,4.7,3.18,3.18,0,0,1-.81,3.62,13.9,13.9,0,0,1-2.52,1.57c-2.49,1-5,1.82-7.54,2.66q-63.06,21-126.14,41.95c-2.84.94-5.72,1.79-8.62,2.53-2.31.59-4.57-1.57-4.42-4.09a29.22,29.22,0,0,1,.42-4c2.69-13.39,5.34-26.78,8.13-40.15q7.45-35.7,15-71.37,3.84-18.09,7.79-36.15a41.5,41.5,0,0,1,1.89-5.64,2.55,2.55,0,0,1,3.42-1c1.55,1.24,3.1,2.5,4.56,3.84q12.11,11.17,24.19,22.38a19.18,19.18,0,0,0,2.42,1.76,5.41,5.41,0,0,0,5.67-.3,19.26,19.26,0,0,0,3.68-3.34c4-5.38,8.71-10.07,13.17-15,3.78-4.2,7.38-8.57,11.06-12.87q9.75-11.37,19.48-22.75c1.74-2,3.59-3.94,5.35-5.94,2.64-3,5.24-6,7.86-9l5.25-6q4.59-5.26,9.17-10.54c.87-1,1.67-2.08,2.58-3,8.67-9.23,16.78-18.93,24.87-28.66,1.91-2.3,4.11-4.36,6.12-6.59a46.35,46.35,0,0,0,3.82-4.6,7.29,7.29,0,0,0,.58-7.61,26.14,26.14,0,0,0-3.81-5.81c-7-8-14.23-15.86-21.35-23.79-1.78-2-3.51-4-5.25-6-2.4-2.77-4.79-5.55-7.19-8.31-2.61-3-5.24-6-7.85-9-.65-.76-1.22-1.59-1.88-2.33-7.11-7.94-14.28-15.81-21.33-23.8-6.17-7-12.19-14.1-18.28-21.15-1.52-1.77-3-3.6-4.61-5.24-2.46-2.46-5.61-2.65-8.07-.45a41.09,41.09,0,0,0-5.59,5.68A151.61,151.61,0,0,1,2864.83,816c-4.4,4.54-8.7,9.16-12.74,14.06s-8.72,9.17-13,13.8c-3.4,3.65-6.66,7.43-10,11.15-2,2.22-4,4.47-6,6.64-8.25,8.69-16.93,17-24.56,26.27-4.42,5.39-9.68,10.08-14.57,15.09-4,4-7.82,8.17-11.38,12.59a95.87,95.87,0,0,1-9.72,10c-3,2.77-6.76,2.52-9.93-.27a20.32,20.32,0,0,1-2.83-2.81c-6.06-8-13.55-14.68-20.5-21.85-3.47-3.59-7.06-7.07-10.54-10.66a31.54,31.54,0,0,1-3.17-3.84,5,5,0,0,1-.41-4.77A18.89,18.89,0,0,1,2720,875c5.1-5.26,10.3-10.43,15.35-15.74,3.21-3.37,6.2-7,9.32-10.41,2.46-2.72,4.93-5.42,7.46-8.07,6.87-7.24,14.11-14.13,20.38-22,3.72-4.66,8.26-8.67,12.44-13,5.09-5.26,10.18-10.51,14.85-16.19,4.22-5.13,9.15-9.67,13.78-14.46,4.86-5,9.7-10,14.15-15.48,4-4.88,8.73-9.15,13.05-13.78,3.4-3.65,6.58-7.51,10-11.15,5.25-5.58,10.49-11.17,15.94-16.54A27.31,27.31,0,0,1,2888.24,709.89Z"/><path class="cls-1" d="M2549.78,887.27c-.84-7.67,1.86-14.39,6.24-20.5a112.54,112.54,0,0,1,8.2-10c3.8-4.19,7.84-8.15,11.2-12.75,1.36-1.88,3.11-3.46,4.65-5.22,2.86-3.24,5.68-6.52,8.53-9.78,2-2.25,4-4.46,6-6.72,2.63-3,5.23-6,7.85-9l5.26-6c3.06-3.51,6.1-7,9.17-10.54,1.76-2,3.56-4,5.31-6,2.85-3.26,5.66-6.55,8.51-9.8,2-2.26,4-4.47,6-6.72,2.63-3,5.23-6,7.83-9.07.65-.75,1.23-1.58,1.89-2.32,6.17-7,12.39-13.92,18.53-20.94q14.13-16.15,28.17-32.4a7.16,7.16,0,0,0,1.07-1.68,3.87,3.87,0,0,0,0-3.83,38.55,38.55,0,0,0-4.45-5.34c-7.29-7.32-14.68-14.53-22-21.84a49.17,49.17,0,0,1-3.82-4.57,2.92,2.92,0,0,1,.72-3.59,20.22,20.22,0,0,1,2.63-1.41c2.18-.82,4.39-1.56,6.6-2.3l129-42.9c2.22-.73,4.43-1.47,6.67-2.11a18.12,18.12,0,0,1,2.95-.46c1-.13,2.7,1.45,2.66,2.53a24.66,24.66,0,0,1-.28,3.95c-1.89,9.13-3.86,18.25-5.77,27.37q-8.84,42-17.65,84.09-3.7,17.6-7.66,35.15c-.66,2.9-1.67,5.73-2.59,8.57a2.66,2.66,0,0,1-3.47,1c-3.92-3.06-8-6-11.65-9.35-4.92-4.49-9.5-9.34-14.27-14-1.67-1.62-3.41-3.17-5.2-4.65a4.37,4.37,0,0,0-5.54.22,49.89,49.89,0,0,0-5,4.91c-7.89,9.46-15.88,18.82-24.17,27.94-6.72,7.38-13,15.15-19.51,22.72-1.52,1.77-3.14,3.45-4.68,5.2-2.85,3.25-5.67,6.53-8.52,9.79-2,2.25-4,4.47-6,6.72q-3.94,4.51-7.85,9c-1.31,1.52-2.53,3.11-3.9,4.56-8.21,8.73-15.82,18-23.51,27.18-1.92,2.3-4.07,4.4-6.08,6.62-1.34,1.48-2.7,3-3.9,4.54a6.18,6.18,0,0,0-.32,7.48,52.94,52.94,0,0,0,4.86,6.31c9.23,10.5,18.71,20.77,27.72,31.47,6.43,7.63,13.29,14.9,19.89,22.4,6.81,7.74,13.53,15.57,20.29,23.37,1.52,1.76,3,3.53,4.56,5.29,3.49,4,7,8,10.47,12.07,2,2.27,3.8,4.64,6.48,6.15a4.33,4.33,0,0,0,3.81-.28,18.61,18.61,0,0,0,1.49-1.31c5.72-6,11.45-12.09,17.12-18.19,2.72-2.92,5.28-6,8-8.95,2.9-3.21,5.79-6.43,8.78-9.56,6-6.26,12.26-12.23,17.49-19.19a60.38,60.38,0,0,1,4.78-5.1c5.75-6,11.57-11.94,16.87-18.4,4.42-5.39,9.69-10.08,14.49-15.17,3.42-3.63,6.58-7.51,10-11.12q11.37-11.93,22.94-23.67a5.16,5.16,0,0,1,7.27-.29,28.67,28.67,0,0,1,5.05,4.78c4.84,6.42,10.7,11.87,16.27,17.6,4.64,4.78,9.42,9.43,14,14.3s4.46,8.14,0,13c-8.32,9.07-16,18.72-25,27.2a23.5,23.5,0,0,0-2.72,2.93c-5.8,7.78-13,14.3-19.59,21.32-3.42,3.64-6.62,7.47-10,11.16q-4.72,5.16-9.56,10.21c-5.29,5.54-10.7,10.93-15.51,16.94-3.52,4.4-7.75,8.24-11.69,12.31-4.86,5-9.69,10.06-14.13,15.49-4,4.88-8.73,9.15-13.05,13.78-3.4,3.65-6.58,7.51-10,11.15-5.23,5.59-10.35,11.32-15.91,16.57a29.29,29.29,0,0,1-40.69-.34,130.49,130.49,0,0,1-10.37-10.81c-4-4.92-8.37-9.48-12.59-14.19-6.89-7.68-13.53-15.58-20.29-23.37-2-2.26-4-4.47-6-6.72q-3.94-4.51-7.85-9.05c-.65-.75-1.22-1.59-1.88-2.33-6.87-7.7-13.81-15.34-20.61-23.1s-13.46-15.64-20.2-23.45c-1.52-1.76-3.12-3.46-4.65-5.22q-4.6-5.25-9.17-10.54c-.44-.51-.82-1.06-1.26-1.55-7.11-7.93-14.26-15.83-21.33-23.8-2.87-3.23-5.55-6.64-8.37-9.91C2551.9,904.37,2548.92,896.5,2549.78,887.27Z"/><path class="cls-1" d="M3631.84,1872.16c-1.24,10-1.43,21.06-2.5,32a224.79,224.79,0,0,1-24.73,82.76,204.67,204.67,0,0,1-15.89,26.56c-4.1,5.66-8.45,11.13-12.74,16.65a2.91,2.91,0,0,1-5-.32,38.1,38.1,0,0,1-4.56-12.1c-.88-4.23-1.41-8.54-2-12.83a16.56,16.56,0,0,1,0-4c.86-7.61,1.86-15.2,2.68-22.8a108.73,108.73,0,0,0,.68-11c.06-9,0-18-.12-27a40.53,40.53,0,0,0-.38-7c-1.48-7.92-1.32-15.91-1.41-23.9-.07-5.66.4-11.41-.39-17-1.57-10.94-1.51-21.91-1.81-32.89a22.89,22.89,0,0,0-.29-4c-1.49-7.57-1.51-15.23-1.61-22.89a42.63,42.63,0,0,0-.39-7c-1.29-6.91-1-14-1.76-20.87-1.25-11.58-1.31-23.26-3.1-34.79-.06-.33-.12-.66-.15-1-.86-10.27-1.69-20.55-2.57-30.83-.32-3.64-.73-7.28-1.12-10.92-.24-2.31-.55-4.62-.78-6.94-.87-8.61-1.68-17.22-2.6-25.83q-1.76-16.36-3.66-32.73c-.64-5.62-1.3-11.24-2-16.84q-3.56-26.73-7.19-53.43c-1.51-11.22-3-22.44-4.52-33.65-.86-6.27-1.84-12.52-2.78-18.77s-2-12.5-2.83-18.76a58,58,0,0,1-.42-7c-.08-5.66,0-11.33-.11-17-.14-13.79,2.36-27.16,6.43-40.28a191.48,191.48,0,0,1,10.44-25.92c8.51-17.8,19-34.35,30.23-50.54a12.73,12.73,0,0,1,1.89-2.3c.45-.41,1.32-.84,1.74-.66a4.8,4.8,0,0,1,2.15,1.75,7,7,0,0,1,.85,2.84c1.54,12.22,3,24.44,4.55,36.66.67,5.28,1.4,10.56,2.12,15.84,2.42,17.8,4.92,35.6,7.23,53.42,1.71,13.2,3.08,26.45,4.76,39.65,1.55,12.22,3.38,24.4,4.95,36.61,1.07,8.25,1.9,16.53,2.86,24.79q1,8.43,2,16.85c1.09,8.92,2.41,17.81,3.22,26.75s2.38,17.81,2.91,26.8c.52,8.62,1.87,17.2,2.83,25.79.33,3,.62,6,.91,8.94.44,4.64.86,9.27,1.29,13.91.22,2.32.44,4.64.69,7,1.41,12.9,2.3,25.85,3.37,38.77,1,11.59,2,23.2,2.64,34.83a154.31,154.31,0,0,0,1.27,15.91,95.15,95.15,0,0,1,.77,12,124.9,124.9,0,0,0,1.22,15.92,93.31,93.31,0,0,1,.77,12c.18,6.32.23,12.64,1.33,18.91C3631.69,1865.25,3631.6,1868.28,3631.84,1872.16Z"/><path class="cls-1" d="M4687.08,1140.05c-2,0-4,0-6,0a55.18,55.18,0,0,1-30.1-9.31c-.56-.36-1.11-.74-1.68-1.09-12.81-7.84-20.95-19.43-25.52-33.41a80,80,0,0,1-1.27-47.22,69.22,69.22,0,0,1,10-21.68c7.05-9.92,16-17.74,27.75-22,10.11-3.65,20.4-6.19,31.26-5.4,11.76.85,23,3.32,33.15,9.8,15.42,9.87,24.51,24,28.89,41.55a83.83,83.83,0,0,1,2.06,27.77,70,70,0,0,1-12.39,34.35c-10.29,14.88-24.91,22.67-42.21,26-4.54.86-9.28.65-13.93.93C4687.09,1140.23,4687.08,1140.14,4687.08,1140.05Z"/><path class="cls-1" d="M3592.86,1213.82c2.33,0,4.66-.09,7,0a20.35,20.35,0,0,1,12.58,5.42c6.13,5.34,9.14,12,9.65,20.09a39,39,0,0,1-5.86,23.81c-.53.85-1,1.71-1.61,2.53-4.42,6.21-10.58,7.88-17.51,4.52-3-1.44-5.74-3.36-8.66-5-7.49-4.08-15.44-6.09-24-5.18-7,.74-12.8,3.6-16.83,9.45a22.49,22.49,0,0,0-3,6.25,10.15,10.15,0,0,0,1.85,9.44,24.2,24.2,0,0,0,7.48,6.51c2.62,1.45,5.33,2.74,8,4.14,4.71,2.48,9.49,4.84,14.09,7.52a61.18,61.18,0,0,0,39.41,7.56c8.22-1.24,16.43-2.49,24.65-3.7a1,1,0,0,1,.84.4,3,3,0,0,1,.25,1.79,7.67,7.67,0,0,1-1.48,2.57,96.1,96.1,0,0,1-7.5,8c-14.59,13-31.3,22.5-49.31,29.85-20.7,8.46-42.15,14.52-63.89,19.61-4.86,1.14-9.75,2.17-14.63,3.2-1.3.27-2.62.42-3.94.57-1.67.18-3.38-1.66-3-3.16a24.65,24.65,0,0,1,.85-2.85c4.2-10.23,11.53-17.76,20.61-23.76,2.49-1.65,5.1-3.14,7.6-4.78a30.78,30.78,0,0,0,3.08-2.52,3.43,3.43,0,0,0,.64-3.69,23,23,0,0,0-2.28-3.24c-2.25-2.45-4.59-4.82-6.92-7.2a57.8,57.8,0,0,1-9.4-12.86c-5.51-10.13-5.61-20.44,0-30.49,2.92-5.21,6.52-10.05,9.91-15,1.88-2.74,4-5.3,5.92-8,6.31-9.08,14.07-16.84,22-24.43,9.18-8.75,20.26-13.9,32.48-16.64,3.54-.79,7.27-.76,10.91-1.11C3592.84,1213.58,3592.85,1213.7,3592.86,1213.82Z"/></g></g></svg>