<svg xmlns="http://www.w3.org/2000/svg" width="43" height="42" viewBox="0 0 43 42">
  <path id="Subtraction_6" data-name="Subtraction 6" d="M40,42H5a5.006,5.006,0,0,1-5-5V16.3a5.006,5.006,0,0,1,5-5h6.783V37.1h1.86V3a3,3,0,0,1,3-3H40a3,3,0,0,1,3,3V39A3,3,0,0,1,40,42ZM24.6,33.685v4.9H35.764v-4.9ZM3.928,29.848v3.838H7.649V29.848Zm30.6-3.838v3.838h3.722V26.01Zm-6.822,0v3.838h3.722V26.01Zm-6.822,0v3.838H24.6V26.01ZM3.928,23.026v3.838H7.649V23.026Zm30.6-2.985v3.838h3.722V20.04Zm-6.822,0v3.838h3.722V20.04Zm-6.822,0v3.838H24.6V20.04ZM3.928,16.2V20.04H7.649V16.2Zm30.6-2.984v3.838h3.722V13.218Zm-6.822,0v3.838h3.722V13.218Zm-6.822,0v3.838H24.6V13.218ZM34.524,6.4v3.838h3.722V6.4ZM27.7,6.4v3.838h3.722V6.4Zm-6.822,0v3.838H24.6V6.4Z" fill="#19173D"/>
</svg>
