<svg xmlns="http://www.w3.org/2000/svg" viewBox="0 0 223.15 229.72"><defs><style>.cls-1{fill:#53c3eb;}</style></defs><g id="Layer_2" data-name="Layer 2"><g id="Layer_1-2" data-name="Layer 1"><path class="cls-1" d="M107,229.72l15.37-68.89,16,14.52,52.35-56.91-43.43-47-55.6,56.39-19.79-21c6.55-6,14-12.56,21.06-19.53,14.76-14.65,29.27-29.54,43.88-44.33,7-7.08,15.06-6.94,21.78.32q29.53,32,59.09,63.88c7.3,7.89,7.24,14.68,0,22.58Q189.27,160.5,161,191.37c-.71.78-1.33,1.64-2.21,2.74l15.61,14.51Z"/><path class="cls-1" d="M100.76,68.91,84.83,54.35l-52.35,56.9L75.9,158.33l55.82-56.61c6.36,6.75,12.46,13.24,18.76,19.94-6.55,6.71-13.6,14-20.71,21.2q-21.65,21.94-43.34,43.85c-7.08,7.15-15.28,6.92-22.07-.44Q35,154.41,5.54,122.62c-7.35-7.94-7.4-14.57-.06-22.55Q33.58,69.5,61.69,39c.89-1,1.71-2,2.79-3.25L48.85,21.09,116.14,0C111,23.13,106,45.66,100.76,68.91Z"/></g></g></svg>