<svg xmlns="http://www.w3.org/2000/svg" width="43" height="43" viewBox="0 0 43 43">
  <path id="Icon_awesome-home" data-name="Icon awesome-home" d="M20.929,13.409,7.166,27.985V43.718a1.4,1.4,0,0,0,1.194,1.536l8.365-.028a1.4,1.4,0,0,0,1.188-1.536V34.5a1.4,1.4,0,0,1,1.194-1.536h4.777A1.4,1.4,0,0,1,25.08,34.5v9.181a1.784,1.784,0,0,0,.348,1.089,1.08,1.08,0,0,0,.846.452l8.362.03a1.4,1.4,0,0,0,1.194-1.536V27.975L22.071,13.409A.759.759,0,0,0,20.929,13.409Zm21.739,9.907L36.428,16.7V3.405a1.048,1.048,0,0,0-.9-1.152h-4.18a1.048,1.048,0,0,0-.9,1.152v6.97L23.773,3.3a2.994,2.994,0,0,0-4.553,0L.324,23.316A1.389,1.389,0,0,0,.2,24.939l1.9,2.976a.86.86,0,0,0,.606.415.769.769,0,0,0,.656-.258l17.558-18.6a.759.759,0,0,1,1.142,0l17.559,18.6a.768.768,0,0,0,1.262-.154l1.9-2.976a1.388,1.388,0,0,0,.2-.847,1.273,1.273,0,0,0-.326-.779Z" transform="translate(0.001 -2.253)" fill="#19173D"/>
</svg>
